<svg width="1000" height="931" viewBox="0 0 1000 931" fill="none" xmlns="http://www.w3.org/2000/svg">
<path d="M507 7C535.417 25.6617 571.044 37.1132 595.643 61.7128C641.873 107.943 624.06 182.59 613.033 238.999C608.367 261.902 599.46 293.712 616.001 313.646C643.994 347.152 705.493 331.035 742.392 327.642C800.498 322.129 864.966 322.977 917.982 350.545C954.033 369.631 984.146 402.713 991.781 442.582" stroke="white" stroke-width="16" stroke-miterlimit="10"/>
<path d="M910.584 581.154C897.436 575.64 889.377 562.068 881.319 550.616C862.657 524.744 837.209 504.81 810.489 487.845C748.142 448.825 674.343 425.498 600.12 421.681C562.373 419.56 523.777 422.105 486.878 430.163C455.916 436.949 418.169 456.035 386.359 442.039C321.891 414.046 368.545 302.924 377.452 257.542C393.993 172.716 328.677 132 260.816 100.19" stroke="white" stroke-width="16" stroke-miterlimit="10"/>
<path d="M220.497 209C228.132 214.09 228.132 224.693 227.284 234.024C224.739 277.709 225.163 321.819 228.98 365.504C230.252 380.349 231.949 395.193 237.039 409.189C255.276 460.085 311.261 488.926 334.164 537.701C339.254 548.304 341.375 562.3 327.378 567.39C319.744 569.935 311.685 568.662 303.627 568.238C243.825 566.966 217.529 627.616 212.015 677.664C204.805 740.011 217.104 804.055 246.369 859.191" stroke="white" stroke-width="16" stroke-miterlimit="10"/>
<path d="M899.176 636.709C891.966 651.554 884.755 666.823 872.456 678.274C857.187 692.27 836.404 698.208 816.47 703.722C763.878 717.718 710.014 734.259 655.301 732.563C604.405 730.866 583.623 701.601 578.109 652.826C573.444 611.262 569.203 543.825 510.248 562.062C456.808 578.179 421.605 623.561 387.251 664.702C353.744 704.57 314.724 740.621 268.07 764.797C214.63 792.789 156.948 794.062 97.5698 793.213C79.3322 793.213 60.6705 792.789 44.1294 784.731C27.5884 776.672 14.8645 758.859 18.6816 741.045" stroke="white" stroke-width="16" stroke-miterlimit="10"/>
<path d="M360.063 855.991C347.763 787.706 460.158 710.514 519.96 713.483C560.253 715.603 512.326 833.088 512.326 856.415C512.326 875.076 513.598 896.283 528.443 907.734C535.653 913.248 544.56 914.945 553.467 916.641C578.49 921.307 603.938 923.003 629.386 922.579" stroke="white" stroke-width="16" stroke-miterlimit="10"/>
<path d="M716.352 634.016C718.473 637.409 720.594 640.378 723.987 642.923C729.076 646.74 735.014 648.012 741.376 648.86C753.252 650.557 766.4 650.981 777.003 644.619C788.455 637.833 793.968 624.261 794.392 611.113C794.817 597.965 790.575 585.241 785.486 572.941C780.396 560.641 774.458 548.342 767.248 536.89C760.886 526.287 753.252 515.259 741.8 510.594C729.925 505.504 715.08 508.049 705.749 516.956C691.329 530.104 695.146 550.886 696.418 568.276C698.115 592.027 703.204 614.082 716.352 634.016Z" stroke="white" stroke-width="16" stroke-miterlimit="10"/>
<path d="M87.8849 346.275C89.1573 345.426 90.8538 346.699 91.7021 347.971C111.636 373.419 131.994 398.867 150.656 425.163C165.501 445.945 176.528 470.969 197.735 486.238C200.704 488.358 215.972 494.296 216.396 498.961C217.245 509.141 196.038 505.323 188.828 505.323C159.987 506.172 148.96 543.919 136.66 565.126C127.753 580.819 117.998 597.36 102.305 606.266C93.8227 610.932 84.4919 613.477 74.7369 614.749C53.5304 617.294 28.5067 612.628 17.9034 593.967C14.0863 587.181 12.3897 579.122 11.1174 571.064C8.14845 551.13 7.30019 530.771 8.57258 510.413" stroke="white" stroke-width="16" stroke-miterlimit="10"/>
</svg>
