<svg width="100" height="100" viewBox="0 0 100 100" fill="none" xmlns="http://www.w3.org/2000/svg">
<circle cx="50" cy="50" r="50" fill="white"/>
<path d="M49.9962 75.4902C46.6424 75.4908 43.3224 74.8143 40.2317 73.5005C37.1411 72.1867 34.3422 70.2622 32 67.8403C27.2024 62.9682 24.5098 56.3791 24.5098 49.5113C24.5098 42.6434 27.2024 36.0544 32 31.1823C34.3207 28.7853 37.0886 26.8753 40.1443 25.5623C43.1999 24.2494 46.4828 23.5595 49.8038 23.5324H49.9937C50.0586 23.5284 50.1237 23.5284 50.1886 23.5324C51.6087 23.6169 52.9471 24.2302 53.9447 25.2534C54.9422 26.2766 55.5279 27.6369 55.5882 29.0709C55.6486 30.5048 55.1793 31.9103 54.2713 33.0152C53.3633 34.12 52.0812 34.8455 50.6734 35.0512C50.5265 35.093 50.3746 35.1139 50.2219 35.1133C48.4002 35.1159 46.5974 35.4855 44.9192 36.2006C43.241 36.9156 41.7213 37.9617 40.4492 39.2773C37.8289 41.9344 36.3579 45.5301 36.3579 49.2784C36.3579 53.0266 37.8289 56.6224 40.4492 59.2794C41.7201 60.597 43.2398 61.6443 44.9185 62.3594C46.5972 63.0745 48.401 63.4429 50.2232 63.4429C52.0455 63.4429 53.8492 63.0745 55.528 62.3594C57.2067 61.6443 58.7264 60.597 59.9972 59.2794C61.303 57.9694 62.338 56.411 63.0425 54.6945C63.747 52.978 64.1069 51.1375 64.1013 49.2797C64.1074 48.9953 64.0572 48.7125 63.9537 48.4479C63.8501 48.1833 63.6953 47.9423 63.4982 47.7388C63.3011 47.5354 63.0658 47.3737 62.8059 47.2633C62.5461 47.1528 62.2671 47.0957 61.9851 47.0954C61.7039 47.0952 61.4256 47.1524 61.1669 47.2637C60.9063 47.3719 60.6705 47.5331 60.4743 47.7373C60.2769 47.9398 60.1217 48.1802 60.0177 48.4442C59.9138 48.7082 59.8632 48.9905 59.869 49.2745C59.869 49.3237 59.869 49.3676 59.869 49.4142C59.869 49.4608 59.869 49.5022 59.869 49.5488C59.867 52.1458 58.8433 54.6358 57.023 56.4719C55.2026 58.3081 52.7344 59.3402 50.1604 59.3415C47.5976 59.3382 45.1394 58.3153 43.3195 56.4948C41.9594 55.1318 41.0298 53.393 40.6482 51.4976C40.2666 49.6022 40.45 47.6352 41.1752 45.8449C41.9004 44.0545 43.135 42.521 44.7232 41.4378C46.3113 40.3547 48.1819 39.7704 50.0988 39.7587C50.3349 39.7566 50.5692 39.8005 50.7888 39.8881C51.0082 39.978 51.2079 40.1108 51.3762 40.2788C51.5458 40.4472 51.6794 40.6489 51.7687 40.8715C51.8588 41.0918 51.905 41.328 51.9045 41.5663C51.904 41.8047 51.8569 42.0407 51.7659 42.2607C51.6749 42.4806 51.5417 42.6803 51.3741 42.8483C51.2064 43.0163 51.0075 43.1492 50.7888 43.2394C50.5754 43.3269 50.3471 43.3717 50.1168 43.3714C48.4786 43.369 46.9067 44.0233 45.7467 45.1902C44.5866 46.3572 43.9336 47.9413 43.9312 49.5941C43.9288 51.2469 44.5773 52.8329 45.734 54.0032C46.8906 55.1736 48.4607 55.8325 50.0988 55.8349C50.9142 55.8353 51.7215 55.6727 52.4742 55.3566C53.2269 55.0404 53.9101 54.577 54.4844 53.9931C55.0587 53.4091 55.5126 52.7162 55.82 51.9543C56.1274 51.1924 56.2822 50.3766 56.2754 49.554C56.2727 49.5083 56.2727 49.4625 56.2754 49.4168C56.2727 49.3711 56.2727 49.3253 56.2754 49.2797C56.2593 48.5148 56.3947 47.7543 56.6737 47.0429C56.9527 46.3315 57.3697 45.6835 57.9002 45.1368C58.4307 44.5901 59.064 44.1557 59.763 43.8592C60.4621 43.5627 61.2127 43.4099 61.971 43.4099C62.7293 43.4099 63.48 43.5627 64.179 43.8592C64.8781 44.1557 65.5114 44.5901 66.0419 45.1368C66.5723 45.6835 66.9893 46.3315 67.2683 47.0429C67.5473 47.7543 67.6827 48.5148 67.6667 49.2797C67.675 51.6079 67.2259 53.9148 66.3454 56.0669C65.4649 58.219 64.1703 60.1738 62.5366 61.8182C60.9327 63.4758 59.0164 64.793 56.9004 65.6924C54.7844 66.5917 52.5116 67.055 50.2155 67.055C47.9195 67.055 45.6466 66.5917 43.5307 65.6924C41.4147 64.793 39.4984 63.4758 37.8944 61.8182C34.6134 58.4843 32.7721 53.9766 32.7721 49.2784C32.7721 44.5801 34.6134 40.0725 37.8944 36.7386C40.9988 33.522 45.2201 31.6477 49.6679 31.5109H49.8449C50.4048 31.4955 50.9369 31.2612 51.3289 30.8574C51.7208 30.4537 51.942 29.9121 51.9456 29.347C51.9493 28.7818 51.7352 28.2374 51.3485 27.8285C50.9618 27.4196 50.4328 27.1783 49.8731 27.1555C47.0147 27.1728 44.1881 27.7619 41.5569 28.8889C38.9257 30.0159 36.5423 31.6583 34.5445 33.721C30.4119 37.917 28.0923 43.5921 28.0923 49.5074C28.0923 55.4227 30.4119 61.0978 34.5445 65.2938C36.5538 67.3755 38.956 69.0301 41.6094 70.1598C44.2628 71.2896 47.1137 71.8716 49.9937 71.8716C52.8737 71.8716 55.7245 71.2896 58.3779 70.1598C61.0313 69.0301 63.4335 67.3755 65.4428 65.2938C67.4995 63.2234 69.1291 60.7623 70.2372 58.0527C71.3454 55.343 71.9102 52.4386 71.8989 49.5074C71.8989 49.0269 72.0881 48.5662 72.4248 48.2264C72.7616 47.8867 73.2183 47.6958 73.6945 47.6958C74.1707 47.6958 74.6274 47.8867 74.9641 48.2264C75.3008 48.5662 75.49 49.0269 75.49 49.5074C75.5038 52.9111 74.8487 56.2838 73.5627 59.4305C72.2766 62.5773 70.3851 65.4356 67.9975 67.8403C65.6558 70.2611 62.8576 72.1847 59.7679 73.4981C56.6782 74.8114 53.3592 75.4879 50.0065 75.4876L49.9962 75.4902Z" fill="#82E1FF"/>
</svg>
