<svg width="678" height="677" viewBox="0 0 678 677" fill="none" xmlns="http://www.w3.org/2000/svg">
<ellipse cx="339" cy="338.5" rx="339" ry="338.5" fill="#44C1D1"/>
<g opacity="0.4">
<mask id="mask0" mask-type="alpha" maskUnits="userSpaceOnUse" x="0" y="0" width="678" height="677">
<ellipse cx="339" cy="338.5" rx="339" ry="338.5" fill="#44C1D1"/>
</mask>
<g mask="url(#mask0)">
<path d="M345 -146C373.417 -127.338 409.044 -115.887 433.643 -91.2872C479.873 -45.057 462.06 29.5899 451.033 85.9992C446.367 108.902 437.46 140.712 454.001 160.646C481.994 194.152 543.493 178.035 580.392 174.642C638.498 169.129 702.966 169.977 755.982 197.545C792.033 216.631 822.146 249.713 829.781 289.582" stroke="white" stroke-width="16" stroke-miterlimit="10"/>
<path d="M748.584 428.154C735.436 422.64 727.377 409.068 719.319 397.617C700.657 371.745 675.209 351.811 648.489 334.845C586.142 295.825 512.343 272.498 438.12 268.681C400.373 266.56 361.777 269.105 324.878 277.164C293.916 283.95 256.169 303.036 224.359 289.039C159.891 261.047 206.545 149.925 215.452 104.543C231.993 19.7167 166.677 -20.9998 98.8164 -52.8096" stroke="white" stroke-width="16" stroke-miterlimit="10"/>
<path d="M58.4974 56C66.1318 61.0896 66.1318 71.6928 65.2835 81.0237C62.7387 124.709 63.1629 168.819 66.98 212.504C68.2524 227.349 69.949 242.193 75.0385 256.189C93.2761 307.085 149.261 335.926 172.164 384.701C177.254 395.304 179.375 409.3 165.378 414.39C157.744 416.935 149.685 415.662 141.627 415.238C81.8246 413.966 55.5285 474.616 50.0148 524.664C42.8046 587.011 55.1044 651.055 84.3694 706.191" stroke="white" stroke-width="16" stroke-miterlimit="10"/>
<path d="M737.176 483.709C729.966 498.554 722.755 513.823 710.456 525.274C695.187 539.27 674.404 545.208 654.47 550.722C601.878 564.718 548.014 581.259 493.301 579.563C442.405 577.866 421.623 548.601 416.109 499.826C411.444 458.262 407.203 390.825 348.248 409.062C294.808 425.179 259.605 470.561 225.251 511.702C191.744 551.57 152.724 587.621 106.07 611.797C52.6297 639.789 -5.05195 641.062 -64.4302 640.213C-82.6678 640.213 -101.329 639.789 -117.871 631.731C-134.412 623.672 -147.136 605.859 -143.318 588.045" stroke="white" stroke-width="16" stroke-miterlimit="10"/>
<path d="M198.063 702.99C185.763 634.705 298.158 557.514 357.96 560.482C398.253 562.603 350.326 680.087 350.326 703.414C350.326 722.076 351.598 743.283 366.443 754.734C373.653 760.248 382.56 761.944 391.467 763.641C416.49 768.306 441.938 770.003 467.386 769.579" stroke="white" stroke-width="16" stroke-miterlimit="10"/>
<path d="M554.352 481.016C556.473 484.409 558.594 487.378 561.987 489.923C567.076 493.74 573.014 495.012 579.376 495.86C591.252 497.557 604.4 497.981 615.003 491.619C626.455 484.833 631.968 471.261 632.392 458.113C632.817 444.965 628.575 432.241 623.486 419.941C618.396 407.641 612.458 395.342 605.248 383.89C598.886 373.287 591.252 362.259 579.8 357.594C567.925 352.504 553.08 355.049 543.749 363.956C529.329 377.104 533.146 397.886 534.418 415.276C536.115 439.027 541.204 461.082 554.352 481.016Z" stroke="white" stroke-width="16" stroke-miterlimit="10"/>
<path d="M-74.1151 193.275C-72.8427 192.426 -71.1462 193.699 -70.2979 194.971C-50.3638 220.419 -30.0056 245.867 -11.3438 272.163C3.50071 292.945 14.5281 317.969 35.7346 333.238C38.7035 335.358 53.9722 341.296 54.3963 345.961C55.2446 356.141 34.0381 352.323 26.8279 352.323C-2.01298 353.172 -13.0404 390.919 -25.3401 412.126C-34.2469 427.819 -44.0019 444.36 -59.6947 453.266C-68.1773 457.932 -77.5081 460.477 -87.2631 461.749C-108.47 464.294 -133.493 459.628 -144.097 440.967C-147.914 434.181 -149.61 426.122 -150.883 418.064C-153.852 398.13 -154.7 377.771 -153.427 357.413" stroke="white" stroke-width="16" stroke-miterlimit="10"/>
</g>
</g>
</svg>
