<svg width="60" height="60" viewBox="0 0 60 60" fill="none" xmlns="http://www.w3.org/2000/svg">
<circle cx="30" cy="30" r="30" fill="white"/>
<path d="M37.7707 44.0385C36.33 44.0389 34.9477 43.4721 33.9261 42.462C32.9045 41.4518 32.3268 40.0807 32.3193 38.6482V35.8067L34.3198 36.8013V38.6397C34.3206 39.5476 34.6836 40.418 35.3293 41.06C35.975 41.7019 36.8505 42.0629 37.7636 42.0637C37.9891 42.0633 38.214 42.0414 38.4352 41.9983C39.2742 41.833 40.0212 41.3631 40.5309 40.6803C41.0407 39.9975 41.2766 39.1505 41.1928 38.3042C41.109 37.458 40.7115 36.673 40.0776 36.1021C39.4437 35.5312 38.6189 35.2152 37.7636 35.2157H22.6452C21.7899 35.2152 20.9651 35.5312 20.3312 36.1021C19.6973 36.673 19.2998 37.458 19.216 38.3042C19.1322 39.1505 19.3681 39.9975 19.8779 40.6803C20.3876 41.3631 21.1346 41.833 21.9736 41.9983C22.1949 42.0414 22.4198 42.0632 22.6452 42.0637C23.5586 42.0637 24.4345 41.7029 25.0803 41.0608C25.7262 40.4187 26.089 39.5478 26.089 38.6397V35.7982L28.0895 36.7927V38.6312C28.0835 39.6994 27.7601 40.7421 27.1601 41.6282C26.5601 42.5144 25.7101 43.2045 24.7169 43.6121C23.7237 44.0196 22.6316 44.1263 21.5776 43.9188C20.5236 43.7113 19.5548 43.1989 18.7927 42.4458C17.7744 41.4408 17.1993 40.0748 17.1937 38.6482V20.9614C17.1995 19.8931 17.5227 18.8502 18.1226 17.9638C18.7225 17.0775 19.5724 16.3871 20.5657 15.9794C21.5589 15.5717 22.6512 15.4648 23.7053 15.6723C24.7594 15.8797 25.7284 16.3922 26.4905 17.1453C26.9978 17.6446 27.4009 18.2387 27.6765 18.8933C27.9522 19.548 28.0949 20.2503 28.0967 20.96V24.384H32.3164V20.9614C32.3164 19.5239 32.8908 18.1453 33.9131 17.1288C34.9355 16.1124 36.3221 15.5413 37.7679 15.5413C39.2137 15.5413 40.6003 16.1124 41.6227 17.1288C42.645 18.1453 43.2194 19.5239 43.2194 20.9614V38.6468C43.2141 40.0807 42.6373 41.4541 41.6155 42.466C40.5937 43.478 39.2101 44.046 37.7679 44.0456L37.7707 44.0385ZM19.2014 34.4485C20.171 33.6575 21.3867 33.2257 22.6409 33.2267H37.7707C39.025 33.2257 40.2406 33.6575 41.2102 34.4485V25.1597C40.2398 25.9491 39.0246 26.3803 37.7707 26.3801H22.6452C21.3899 26.3813 20.173 25.9501 19.2014 25.1597V34.4485ZM22.6309 17.5417C22.1729 17.5324 21.7176 17.6141 21.2916 17.782C20.8657 17.9499 20.4778 18.2005 20.1506 18.5193C19.8233 18.8381 19.5634 19.2187 19.3859 19.6386C19.2084 20.0585 19.117 20.5095 19.117 20.965C19.117 21.4205 19.2084 21.8714 19.3859 22.2914C19.5634 22.7113 19.8233 23.0918 20.1506 23.4106C20.4778 23.7294 20.8657 23.9801 21.2916 24.148C21.7176 24.3159 22.1729 24.3975 22.6309 24.3883H26.089V20.9614C26.089 20.0533 25.7262 19.1824 25.0803 18.5403C24.4345 17.8982 23.5586 17.5375 22.6452 17.5375L22.6309 17.5417ZM37.7707 24.384C38.4515 24.3837 39.1169 24.1827 39.6828 23.8065C40.2487 23.4303 40.6897 22.8956 40.9501 22.2702C41.2104 21.6448 41.2783 20.9567 41.1454 20.2929C41.0124 19.629 40.6844 19.0193 40.2029 18.5408C39.7214 18.0623 39.1081 17.7365 38.4404 17.6045C37.7726 17.4726 37.0806 17.5405 36.4516 17.7995C35.8227 18.0586 35.2852 18.4973 34.907 19.0601C34.5288 19.6229 34.327 20.2846 34.327 20.9614V24.384H37.7707Z" fill="#FF957D"/>
</svg>
