<svg width="80" height="80" viewBox="0 0 80 80" fill="none" xmlns="http://www.w3.org/2000/svg">
<circle cx="40" cy="40" r="40" fill="white"/>
<path d="M42.2419 61.9608C41.3783 61.9608 40.6658 61.239 40.6658 60.364V42.8203C40.6658 42.2516 40.968 41.7266 41.4646 41.4422L48.935 37.0672C49.1725 36.9141 49.4532 36.8485 49.7123 36.8485C50.5759 36.8485 51.2884 37.5703 51.2884 38.4453C51.2884 39.0141 50.9861 39.5391 50.4895 39.8235L44.9191 43.0828C44.2498 43.4766 43.818 44.2203 43.818 45.0078V60.364C43.818 60.9327 43.5157 61.4577 43.0192 61.7421C42.7817 61.8952 42.5226 61.9608 42.2419 61.9608ZM36.9738 61.9608C36.6931 61.9608 36.434 61.8952 36.1965 61.7421L21.1694 52.9703C20.6728 52.6859 20.3922 52.1609 20.3922 51.5921V42.8641C20.3922 41.9891 21.1046 41.2672 21.9683 41.2672C22.2489 41.2672 22.508 41.3328 22.7455 41.4859C23.2421 41.7703 23.5444 42.2953 23.5444 42.8641V49.3828C23.5444 50.1703 23.9546 50.914 24.6455 51.3078L37.751 58.9859C38.2476 59.2702 38.5283 59.7952 38.5283 60.364C38.5283 60.8015 38.3556 61.2171 38.0533 61.5233C37.7726 61.7858 37.3624 61.9608 36.9738 61.9608ZM49.777 57.5421C48.9134 57.5421 48.2009 56.8202 48.2009 55.9452C48.2009 55.3765 48.5032 54.8515 48.9782 54.5671L54.5486 51.3078C55.2179 50.914 55.6497 50.1703 55.6497 49.3828V34.0485C55.6497 33.4797 55.952 32.9547 56.4486 32.6704C56.7076 32.5172 56.9667 32.4516 57.2474 32.4516C58.111 32.4516 58.8235 33.1735 58.8235 34.0485V51.5921C58.8235 52.1609 58.5213 52.6859 58.0247 52.9703L50.5543 57.3452C50.3168 57.4765 50.0577 57.5421 49.777 57.5421ZM36.9738 53.1453C36.6931 53.1453 36.434 53.0796 36.1965 52.9265C35.6999 52.6421 35.3977 52.1171 35.3977 51.5484V45.0297C35.3977 44.2422 34.9874 43.4984 34.2965 43.1047L21.191 35.4266C20.6944 35.1422 20.3922 34.6172 20.3922 34.0485C20.3922 33.1735 21.1046 32.4516 21.9683 32.4516C22.2489 32.4516 22.508 32.5172 22.7455 32.6704L37.751 41.4422C38.2476 41.7266 38.5499 42.2516 38.5499 42.8203V51.5484C38.5499 52.4234 37.8374 53.1453 36.9738 53.1453ZM39.6078 39.5828C39.3272 39.5828 39.0681 39.5172 38.809 39.3641L31.3602 34.9891C30.8636 34.7047 30.5614 34.1797 30.5614 33.611C30.5614 33.0422 30.8636 32.5172 31.3602 32.2329C31.5977 32.1016 31.8784 32.0141 32.1591 32.0141C32.4397 32.0141 32.6988 32.0798 32.9579 32.2329L38.5283 35.4922C38.8522 35.6891 39.2408 35.7985 39.6294 35.7985C40.0181 35.7985 40.3851 35.6891 40.7306 35.4922L53.8361 27.8142C54.0736 27.6829 54.3543 27.5954 54.6349 27.5954C54.9156 27.5954 55.1747 27.661 55.4122 27.8142C55.9088 28.0985 56.2111 28.6235 56.2111 29.1923C56.2111 29.761 55.9088 30.286 55.4122 30.5704L40.3851 39.3641C40.1476 39.4953 39.8885 39.5828 39.6078 39.5828ZM24.6023 30.811C24.3217 30.811 24.0626 30.7454 23.8035 30.5923C23.3069 30.3079 23.0262 29.7829 23.0262 29.2141C23.0262 28.6454 23.3285 28.1204 23.8035 27.836L38.809 19.0423C39.0465 18.9111 39.3272 18.8236 39.6078 18.8236C39.8885 18.8236 40.1476 18.8892 40.4067 19.0423L47.8771 23.4173C48.3736 23.7017 48.6759 24.2267 48.6543 24.7954C48.6543 25.3642 48.3521 25.8892 47.8555 26.1735C47.618 26.3267 47.3373 26.3923 47.0566 26.3923C46.7759 26.3923 46.5168 26.3267 46.2578 26.1735L40.6874 22.9142C40.3635 22.7173 39.9749 22.6079 39.5862 22.6079C39.1976 22.6079 38.8306 22.7173 38.4851 22.9142L25.3796 30.5923C25.1421 30.7235 24.883 30.811 24.6023 30.811Z" fill="#FF6489"/>
</svg>
