<svg width="80" height="80" viewBox="0 0 80 80" fill="none" xmlns="http://www.w3.org/2000/svg">
<circle cx="40" cy="40" r="40" fill="white"/>
<path fill-rule="evenodd" clip-rule="evenodd" d="M59.1226 32.4947C57.7441 33.4158 56.1235 33.9074 54.4657 33.9074C52.2431 33.9055 50.1121 33.0218 48.5405 31.4502C46.969 29.8787 46.0852 27.7477 46.0834 25.5251C46.0834 23.8673 46.575 22.2466 47.4961 20.8682C48.4171 19.4897 49.7262 18.4154 51.2579 17.7809C52.7896 17.1465 54.475 16.9805 56.101 17.3039C57.727 17.6274 59.2205 18.4257 60.3928 19.598C61.5651 20.7702 62.3634 22.2638 62.6869 23.8898C63.0103 25.5158 62.8443 27.2012 62.2099 28.7329C61.5754 30.2645 60.501 31.5737 59.1226 32.4947ZM57.3045 21.2812C56.4642 20.7197 55.4763 20.42 54.4657 20.42C53.1105 20.42 51.8108 20.9584 50.8525 21.9166C49.8943 22.8749 49.3559 24.1746 49.3559 25.5298C49.3559 26.5404 49.6556 27.5283 50.2171 28.3686C50.7785 29.2089 51.5766 29.8638 52.5103 30.2505C53.4439 30.6373 54.4713 30.7385 55.4625 30.5413C56.4537 30.3441 57.3642 29.8575 58.0788 29.1429C58.7934 28.4283 59.28 27.5178 59.4772 26.5266C59.6744 25.5354 59.5732 24.508 59.1864 23.5744C58.7997 22.6407 58.1447 21.8427 57.3045 21.2812ZM21.9422 53.61C22.2665 53.6098 22.5834 53.5135 22.8529 53.3333C23.1225 53.153 23.3325 52.8969 23.4566 52.5973C23.5395 52.3987 23.5821 52.1855 23.582 51.9702C23.582 47.7926 25.2415 43.786 28.1956 40.832C31.1496 37.8779 35.1562 36.2183 39.3339 36.2183C43.5115 36.2183 47.5181 37.8779 50.4721 40.832C53.4262 43.786 55.0857 47.7926 55.0857 51.9702C55.0857 52.4051 55.2585 52.8222 55.566 53.1297C55.8735 53.4372 56.2906 53.61 56.7255 53.61C57.1604 53.61 57.5775 53.4372 57.885 53.1297C58.1925 52.8222 58.3652 52.4051 58.3652 51.9702C58.3652 46.9228 56.3602 42.0821 52.7911 38.513C49.222 34.9439 44.3813 32.9388 39.3339 32.9388C34.2864 32.9388 29.4457 34.9439 25.8766 38.513C22.3075 42.0821 20.3025 46.9228 20.3025 51.9702C20.3031 52.4049 20.476 52.8216 20.7834 53.129C21.0908 53.4364 21.5075 53.6094 21.9422 53.61ZM61.2174 59.0147H46.9497L47.5954 58.1576C48.5779 56.8478 49.2351 55.3232 49.5128 53.7094C49.7905 52.0957 49.6807 50.4392 49.1925 48.8762C48.7043 47.3133 47.8517 45.8887 46.7049 44.7199C45.5581 43.5512 44.1499 42.6717 42.5965 42.154C41.0431 41.6362 39.3889 41.4951 37.7702 41.7421C36.1515 41.9891 34.6147 42.6173 33.2865 43.5749C31.9582 44.5324 30.8765 45.7919 30.1306 47.2495C29.3846 48.7072 28.9957 50.3212 28.996 51.9586C28.9947 52.1748 29.0362 52.3892 29.1181 52.5893C29.1999 52.7895 29.3204 52.9715 29.4728 53.1249C29.6252 53.2784 29.8063 53.4002 30.0059 53.4834C30.2055 53.5667 30.4195 53.6097 30.6357 53.61C31.0709 53.6081 31.4879 53.4354 31.797 53.1292C31.9498 52.977 32.0708 52.796 32.1529 52.5966C32.2351 52.3972 32.2767 52.1835 32.2755 51.9679C32.2755 50.5723 32.6893 49.2081 33.4646 48.0478C34.24 46.8874 35.342 45.983 36.6313 45.4489C37.9206 44.9149 39.3394 44.7752 40.7081 45.0474C42.0768 45.3197 43.3341 45.9917 44.3209 46.9785C45.3077 47.9653 45.9798 49.2226 46.252 50.5913C46.5243 51.9601 46.3845 53.3788 45.8505 54.6681C45.3164 55.9575 44.412 57.0595 43.2517 57.8348C42.0913 58.6101 40.7271 59.024 39.3315 59.024H19.4245C19.2099 59.0209 18.9967 59.0604 18.7974 59.1401C18.5981 59.2198 18.4165 59.3382 18.2632 59.4885C18.1099 59.6416 17.9876 59.823 17.9032 60.0227C17.7997 60.2722 17.7593 60.5434 17.7856 60.8122C17.812 61.0811 17.9042 61.3393 18.0542 61.5639C18.2042 61.7886 18.4073 61.9728 18.6456 62.1002C18.8838 62.2275 19.1497 62.2942 19.4199 62.2942H61.2174C61.6523 62.2942 62.0694 62.1214 62.3769 61.8139C62.6844 61.5064 62.8572 61.0893 62.8572 60.6544C62.8572 60.2195 62.6844 59.8025 62.3769 59.4949C62.0694 59.1874 61.6523 59.0147 61.2174 59.0147Z" fill="#B18CFF"/>
</svg>
