<svg width="338" height="568" viewBox="0 0 338 568" fill="none" xmlns="http://www.w3.org/2000/svg">
<path fill-rule="evenodd" clip-rule="evenodd" d="M276.282 706.843L243.282 685.31C244.803 682.37 247.78 677.909 251.634 672.135C269.026 646.074 304.282 593.245 304.282 532.574C302.889 512.329 291.153 488.154 266.258 461.594C242.233 435.963 203.143 412.326 162.007 390.486C148.361 383.242 134.309 376.114 120.675 369.199L120.673 369.198C94.6533 356 70.1586 343.576 52.9269 332.589C23.7119 313.961 8.74022 288.122 14.9342 262.134C21.0884 236.314 46.9041 215.55 85.8405 204.463C121.449 194.324 174.718 179.052 215.983 154.413C256.795 130.044 282.417 98.8554 271.489 55.8869C271.025 54.0641 269.868 47.0352 268.313 37.593L268.313 37.5926C264.088 11.928 256.928 -31.5652 252.782 -36.8045L292.827 -44.316C292.728 -33.6804 295.977 -20.2851 299.682 -5.0034C311.64 44.3083 328.36 113.262 252.782 172.519C207.071 199.813 132.607 221.419 97.6299 231.377L96.9241 231.578C65.3487 240.569 51.607 255.113 48.6013 267.724C45.6356 280.167 51.9017 295.881 73.7659 309.822C89.6214 319.932 111.302 330.916 136.044 343.45C150.028 350.535 164.99 358.115 180.431 366.312C221.741 388.244 265.326 414.103 293.294 443.941C320.391 472.85 335.993 499.706 337.946 528.094C331.067 616.546 293.387 678.647 278.066 703.896L278.06 703.906C277.428 704.948 276.834 705.927 276.282 706.843ZM-363.199 270.731L-327.899 279.129C-327.142 284.555 -326.085 289.618 -324.719 294.362L-308.763 244.906C-310.076 253.206 -310.82 261.861 -311.113 270.567C-311.791 290.669 -310.05 310.369 -307.8 325.515C-294.178 340.806 -272.38 353.54 -237.662 365.226C-201.501 377.397 -153.488 381.555 -104.779 383.302C-88.6255 383.882 -72.1902 384.19 -56.2442 384.489L-56.2416 384.489L-56.232 384.49L-56.2291 384.49C-25.7897 385.061 2.86635 385.598 24.3717 387.923C60.8321 391.863 89.2776 407.993 99.482 433.084C109.621 458.013 99.7027 486.768 72.6246 512.618C47.8611 536.258 10.8775 571.714 -10.0982 610.272C-30.8443 648.408 -34.3491 686.111 0.856598 718.762C6.4096 723.912 13.8863 728.415 23.0915 732.255L-43.3476 716.45C-69.92 677.345 -61.265 635.028 -41.3542 598.428C-18.1184 555.715 21.9659 517.45 46.291 494.229L46.7818 493.761C68.7408 472.798 71.9285 454.468 66.9768 442.292C62.0908 430.279 47.2499 419.284 19.9634 416.335C0.175561 414.197 -25.1809 413.732 -54.1165 413.202L-54.1173 413.202L-54.1275 413.202C-70.4794 412.902 -87.9741 412.581 -106.253 411.926C-155.167 410.171 -208.405 405.966 -250.501 391.797C-291.286 378.069 -320.886 361.322 -339.584 337.552C-354.469 318.629 -361.426 296.548 -363.199 270.731ZM77.9562 745.307C90.0873 746.795 102.748 747.708 115.49 748.163C147.219 749.296 178.313 747.552 201.106 745.28L193.587 767.298C192.624 770.116 189.107 771.749 185.731 770.946L77.9562 745.307ZM143.308 -37.7779L151.117 -61.9801C125.833 -60.461 104.274 -55.4466 85.9045 -45.0568C62.8301 -32.0059 46.7696 -11.5957 33.8022 16.4155C20.4181 45.3267 16.9327 81.726 15.7985 115.144C15.3745 127.635 15.2697 139.586 15.1717 150.757C14.9982 170.519 14.8462 187.838 12.9868 201.374C10.4227 220.039 -0.175838 230.304 -11.8928 233.784C-23.7673 237.31 -41.7718 235.353 -62.5815 220.611L-63.0466 220.281C-86.0978 203.951 -124.083 177.04 -166.226 161.687C-202.339 148.53 -243.918 143.127 -281.93 161.738L-296.626 207.29C-292.973 200.959 -288.648 195.8 -283.667 191.947C-252.085 167.519 -215.089 169.461 -177.461 183.169C-139.417 197.029 -104.223 221.856 -80.7553 238.481C-55.0943 256.66 -26.791 263.088 -2.47775 255.867C21.9931 248.6 37.4622 228.985 40.8883 204.044C42.9092 189.333 43.0933 169.761 43.2888 148.971L43.2888 148.969L43.2888 148.962L43.2889 148.957C43.3913 138.067 43.497 126.843 43.8715 115.808C45.001 82.5303 48.502 49.6984 59.9991 24.8634C71.9128 -0.87171 85.204 -16.3456 101.66 -25.6529C112.738 -31.9186 126.148 -35.8983 143.308 -37.7779Z" fill="white" fill-opacity="0.2"/>
</svg>
