<svg width="531" height="568" viewBox="0 0 531 568" fill="none" xmlns="http://www.w3.org/2000/svg">
<path fill-rule="evenodd" clip-rule="evenodd" d="M148.179 916.409L146.113 919.134C147.562 919.546 149.005 919.947 150.443 920.337L154.69 927.705C156.96 931.643 162.287 933.591 166.588 932.055L180.925 926.938C201.879 930.216 221.659 930.457 240.701 927.041C277.452 920.446 308.298 900.795 338.565 869.593C369.804 837.388 391.361 790.61 408.406 746.699C414.775 730.29 420.47 714.45 425.792 699.645L425.794 699.641L425.796 699.635L425.796 699.634C435.215 673.434 443.468 650.475 452.234 633.342C464.321 609.716 483.187 601.009 500.386 601.846C517.816 602.694 540.849 613.693 561.668 643.001L562.133 643.656C585.194 676.123 623.196 729.622 672.1 769.693C714.006 804.029 766.787 830.605 825.987 823.582L866.708 769.862C858.906 776.577 850.757 781.42 842.341 784.221C788.987 801.977 740.692 782.142 697.028 746.365C652.881 710.192 617.622 660.764 594.144 627.713C568.471 591.572 533.821 569.825 498.133 568.089C462.213 566.341 432.523 585.211 416.371 616.78C406.845 635.4 397.501 661.341 387.576 688.897L387.575 688.899L387.574 688.9C382.374 703.338 377.013 718.22 371.383 732.724C354.41 776.451 334.491 818.478 307.656 846.142C279.849 874.808 254.98 889.187 228.77 893.89C211.126 897.056 191.443 896.095 167.749 890.591L166.932 891.669C149.936 876.413 131.849 858.99 114.749 840.486C103.091 827.871 92.063 814.935 82.23 802.007L148.179 916.409ZM915.39 692.471C910.953 703.911 905.94 715.074 900.335 725.499L944.547 667.174C944.157 674.119 943.209 681.346 941.693 688.914L984.73 716.543C994.376 681.385 995.39 648.778 984.392 616.672C970.578 576.343 939.002 540.269 891.148 502.994C841.757 464.521 772.917 434.101 708.686 408.957C684.689 399.563 661.578 390.98 639.977 382.957L639.969 382.954L639.959 382.95L639.949 382.947L639.948 382.946C601.716 368.748 568.213 356.305 542.893 344.233C507.979 327.586 493.355 306.045 492.443 287.79C491.518 269.291 504.279 246.402 543.226 228.766L544.096 228.371C587.239 208.836 658.333 176.645 709.089 130.681C752.583 91.2951 783.765 39.0593 766.609 -25.3346L685.607 -77.3363C696.063 -67.9371 703.911 -58.4618 708.902 -49.0235C740.538 10.814 718.35 59.3162 673.032 100.355C627.212 141.848 561.548 171.749 517.627 191.638C469.601 213.385 443.043 246.999 444.936 284.878C446.841 323.002 477.169 357.717 523.822 379.96C551.339 393.08 589.196 407.158 629.409 422.113L629.413 422.115L629.428 422.12L629.431 422.121L629.434 422.122L629.436 422.123C650.5 429.957 672.21 438.03 693.419 446.333C757.38 471.371 819.295 499.291 861.723 532.34C902.458 564.07 925.525 591.17 936.53 617.856C932.48 639.046 925.637 666.055 915.39 692.471ZM228.911 -34.9326L252.645 6.23824C233.954 23.8808 222.815 41.2317 217.726 59.7932C210.166 87.3648 215.046 120.929 235.804 167.858C255.836 213.146 296.828 262.808 341.379 311.034C356.154 327.029 371.525 343.059 386.438 358.61L386.445 358.617L386.448 358.62C414.912 388.304 441.71 416.248 459.516 438.895C489.706 477.291 497.603 518.634 477.284 550.304C457.096 581.77 413.113 597.343 356.181 593.928C304.116 590.805 226.179 586.272 159.85 599.793C94.2472 613.166 45.6757 642.692 40.2321 704.928C39.3735 714.745 41.1327 725.842 45.3427 738.017L0.673528 660.528C22.1246 600.94 81.1613 572.328 144.123 559.493C217.598 544.515 301.874 549.571 353.016 552.639L354.048 552.701C400.217 555.47 425.252 542.538 435.112 527.17C444.841 512.006 443.814 488.187 421.22 459.452C404.836 438.614 381.111 413.896 354.037 385.69L354.035 385.689L354.029 385.682C338.729 369.742 322.359 352.687 305.64 334.589C260.902 286.159 214.964 231.445 191.644 178.725C169.05 127.645 160.789 84.657 171.39 45.9955C179.829 15.2173 199.647 -10.7138 228.911 -34.9326ZM618.715 -120.279C603.275 -127.914 586.864 -135.033 570.13 -141.58C528.465 -157.883 486.304 -170.064 454.939 -177.673L475.174 -203.446C477.764 -206.744 483.2 -207.276 487.317 -204.633L618.715 -120.279Z" fill="white" fill-opacity="0.2"/>
</svg>
