<svg width="157" height="27" viewBox="0 0 157 27" fill="none" xmlns="http://www.w3.org/2000/svg">
<path d="M63.854 8.26564H59.02C58.9452 8.26503 58.8715 8.28287 58.8054 8.31755C58.7394 8.35222 58.683 8.40264 58.6416 8.46426L55.0468 13.7576L51.4521 8.46426C51.4105 8.40276 51.3542 8.35243 51.2881 8.31777C51.2221 8.28311 51.1484 8.2652 51.0737 8.26564H46.2908C46.2086 8.26515 46.1279 8.28685 46.0572 8.32838C45.9866 8.36992 45.9287 8.42973 45.8898 8.5014C45.8509 8.57306 45.8324 8.65387 45.8364 8.73514C45.8404 8.81641 45.8666 8.89507 45.9124 8.96268L51.6697 17.4208L45.7932 25.5079C45.7443 25.5745 45.7149 25.6532 45.7084 25.7353C45.7019 25.8174 45.7185 25.8997 45.7563 25.9731C45.7941 26.0464 45.8517 26.108 45.9226 26.1509C45.9936 26.1938 46.0752 26.2164 46.1583 26.2162H51.0339C51.1058 26.2164 51.1767 26.1995 51.2405 26.1669C51.3044 26.1343 51.3595 26.0869 51.401 26.0289L55.0885 20.9023L58.7759 26.0289C58.8176 26.0868 58.8726 26.1341 58.9365 26.1667C59.0003 26.1993 59.0711 26.2163 59.143 26.2162H63.9864C64.0696 26.2164 64.1511 26.1938 64.2221 26.1509C64.2931 26.108 64.3507 26.0464 64.3885 25.9731C64.4263 25.8997 64.4428 25.8174 64.4363 25.7353C64.4298 25.6532 64.4005 25.5745 64.3516 25.5079L58.4751 17.4208L64.2286 8.96268C64.2741 8.89534 64.3004 8.81702 64.3045 8.73608C64.3086 8.65514 64.2905 8.5746 64.252 8.50306C64.2136 8.43151 64.1563 8.37164 64.0862 8.32983C64.0161 8.28802 63.9358 8.26583 63.854 8.26564Z" fill="#455157"/>
<path d="M74.8077 18.9663V12.5749H78.7809C78.9005 12.5749 79.0152 12.528 79.1 12.4444C79.1847 12.3608 79.2326 12.2474 79.2331 12.129V8.71498C79.2331 8.59621 79.1854 8.4823 79.1006 8.39832C79.0158 8.31434 78.9008 8.26716 78.7809 8.26716H74.8077V3.7233C74.8072 3.60485 74.7594 3.49142 74.6746 3.40785C74.5899 3.32427 74.4752 3.27734 74.3556 3.27734H70.2367C70.1168 3.27734 70.0018 3.32452 69.917 3.40851C69.8322 3.49249 69.7846 3.6064 69.7846 3.72517C69.7846 8.78431 70.2046 8.26716 66.4868 8.26716C66.4098 8.26691 66.3335 8.28169 66.2622 8.31065C66.191 8.33962 66.1262 8.3822 66.0716 8.43596C66.0169 8.48973 65.9735 8.55362 65.9438 8.624C65.9141 8.69438 65.8987 8.76986 65.8984 8.84615V11.9959C65.8984 12.0721 65.9136 12.1476 65.9431 12.2179C65.9726 12.2883 66.0158 12.3522 66.0703 12.406C66.1248 12.4598 66.1895 12.5024 66.2606 12.5314C66.3318 12.5604 66.408 12.5752 66.485 12.5749H69.7864V19.935C69.7864 24.314 72.8987 26.4332 76.7868 26.4332C77.7417 26.4537 78.6954 26.3536 79.6247 26.1353C79.7223 26.1105 79.8088 26.0543 79.8707 25.9757C79.9327 25.8971 79.9666 25.8003 79.9672 25.7006V22.2941C79.9665 22.2258 79.9501 22.1586 79.9193 22.0976C79.8885 22.0365 79.8441 21.9832 79.7894 21.9417C79.7347 21.9001 79.6712 21.8715 79.6036 21.8579C79.5361 21.8443 79.4663 21.8461 79.3996 21.8631C78.9122 21.9713 78.4138 22.0228 77.9144 22.0168C75.7537 22.0168 74.8077 21.1549 74.8077 18.9663Z" fill="#455157"/>
<path d="M95.3815 10.2781C94.5756 9.12953 92.6344 7.87224 90.1086 7.87224C85.2387 7.87224 81.5039 12.1444 81.5039 17.241C81.5039 22.3376 85.2387 26.6098 90.1086 26.6098C92.6344 26.6098 94.5756 25.3525 95.3815 24.2039V25.6336C95.3815 25.7099 95.3967 25.7854 95.4262 25.8559C95.4557 25.9263 95.4989 25.9904 95.5533 26.0443C95.6078 26.0982 95.6725 26.141 95.7436 26.1702C95.8148 26.1994 95.891 26.2144 95.9681 26.2144H99.9412C100.061 26.2144 100.176 26.1673 100.261 26.0833C100.346 25.9993 100.393 25.8854 100.393 25.7666V1.10798C100.393 0.989213 100.346 0.875305 100.261 0.791321C100.176 0.707337 100.061 0.660156 99.9412 0.660156H95.8318C95.7725 0.660156 95.7138 0.671752 95.6591 0.69428C95.6043 0.716808 95.5546 0.749824 95.5128 0.791433C95.4709 0.833042 95.4378 0.882426 95.4153 0.936748C95.3928 0.99107 95.3813 1.04926 95.3815 1.10798V10.2781ZM91.17 22.1259C88.4247 22.1259 86.5574 20.0423 86.5574 17.2429C86.5574 14.4435 88.4247 12.3599 91.17 12.3599C93.9153 12.3599 95.7826 14.4416 95.7826 17.2429C95.7826 20.0442 93.919 22.1259 91.17 22.1259Z" fill="#455157"/>
<path d="M155.316 8.05136C153.265 8.05136 151.398 9.37985 150.775 11.1393V8.71467C150.775 8.59589 150.728 8.48199 150.643 8.398C150.558 8.31402 150.443 8.26684 150.323 8.26684H146.21C146.09 8.26684 145.975 8.31402 145.89 8.398C145.805 8.48199 145.758 8.59589 145.758 8.71467V25.7659C145.758 25.8846 145.805 25.9985 145.89 26.0825C145.975 26.1665 146.09 26.2137 146.21 26.2137H150.323C150.443 26.2137 150.558 26.1665 150.643 26.0825C150.728 25.9985 150.775 25.8846 150.775 25.7659V17.6337C150.775 14.6901 152.349 12.8575 154.73 12.8575C155.305 12.8577 155.878 12.9346 156.432 13.0861C156.499 13.104 156.569 13.1064 156.637 13.0931C156.705 13.0798 156.769 13.0512 156.824 13.0095C156.879 12.9678 156.923 12.9142 156.954 12.8527C156.984 12.7913 157 12.7237 157 12.6552V8.61536C156.999 8.51158 156.963 8.41115 156.896 8.33095C156.83 8.25076 156.737 8.19569 156.635 8.17503C156.201 8.08678 155.759 8.04532 155.316 8.05136Z" fill="#455157"/>
<path d="M112.517 7.87109C107.206 7.87109 102.887 11.9934 102.887 17.2399C102.887 22.4864 107.206 26.6087 112.517 26.6087C117.828 26.6087 122.145 22.4864 122.145 17.2399C122.145 11.9934 117.826 7.87109 112.517 7.87109ZM112.517 22.0161C109.879 22.0161 107.94 20.0055 107.94 17.2418C107.94 14.478 109.879 12.4674 112.517 12.4674C115.154 12.4674 117.058 14.478 117.058 17.2418C117.058 20.0055 115.152 22.0161 112.517 22.0161Z" fill="#455157"/>
<path d="M133.65 7.87109C128.341 7.87109 124.02 11.9934 124.02 17.2399C124.02 22.4864 128.341 26.6087 133.65 26.6087C138.959 26.6087 143.28 22.4864 143.28 17.2399C143.28 11.9934 138.947 7.87109 133.65 7.87109ZM133.65 22.0161C131.012 22.0161 129.073 20.0055 129.073 17.2418C129.073 14.478 131.001 12.4674 133.65 12.4674C136.298 12.4674 138.19 14.478 138.19 17.2418C138.19 20.0055 136.276 22.0161 133.65 22.0161Z" fill="#455157"/>
<path d="M15.3099 7.65625C11.9384 7.65625 9.06641 9.18898 7.45445 11.5349C7.32012 11.7223 7.09119 12.1476 6.78469 12.1495C5.31084 12.1608 5.22002 10.3601 5.17272 8.75427C5.1674 8.63926 5.11773 8.53064 5.03396 8.45082C4.95018 8.37099 4.83868 8.32602 4.72243 8.32518L0.454136 8.29707C0.393864 8.29707 0.334192 8.30894 0.278602 8.33201C0.223012 8.35507 0.172618 8.38887 0.130353 8.43143C0.0880878 8.47398 0.0547976 8.52445 0.0324284 8.57988C0.0100592 8.6353 -0.000941447 8.69459 6.30875e-05 8.75427C0.0946619 12.676 0.823073 15.3405 5.62301 16.4011C5.75091 16.4305 5.86485 16.5022 5.94603 16.6044C6.02721 16.7066 6.07077 16.8332 6.06952 16.9632V25.7699C6.06952 25.8285 6.08124 25.8865 6.10401 25.9407C6.12678 25.9948 6.16015 26.0439 6.20219 26.0852C6.24423 26.1265 6.2941 26.1591 6.34894 26.1812C6.40378 26.2033 6.4625 26.2144 6.5217 26.2139H10.6708C10.7907 26.2139 10.9057 26.1668 10.9905 26.0828C11.0753 25.9988 11.123 25.8849 11.123 25.7661V16.6728C11.123 14.651 12.5703 12.3631 15.3156 12.3631C17.9284 12.3631 19.5063 14.6566 19.5063 16.6728V25.7699C19.5063 25.8886 19.554 26.0025 19.6388 26.0865C19.7236 26.1705 19.8386 26.2177 19.9585 26.2177H24.1038C24.2234 26.2172 24.338 26.1698 24.4224 26.0859C24.5067 26.0019 24.5541 25.8883 24.5541 25.7699V15.9982C24.5522 11.3251 20.5261 7.65625 15.3099 7.65625Z" fill="#455157"/>
<path d="M36.2903 7.87109C30.7241 7.87109 26.6602 11.9278 26.6602 17.2399C26.6602 22.9117 30.9076 26.5094 36.3622 26.6087C40.6456 26.6874 43.4968 24.259 44.1742 23.4083C44.21 23.3612 44.236 23.3075 44.2506 23.2503C44.2652 23.1931 44.2681 23.1335 44.2591 23.0752C44.2501 23.0169 44.2294 22.961 44.1983 22.9107C44.1671 22.8604 44.1261 22.8168 44.0777 22.7824L41.2303 20.5789C40.92 20.2735 40.6797 20.4384 40.4943 20.5883C40.0383 20.9537 39.1699 22.0086 36.4 22.121C33.984 22.2184 31.8215 20.7925 31.5301 18.3866H44.808C44.9227 18.3859 45.0329 18.3423 45.1164 18.2644C45.1999 18.1865 45.2506 18.0802 45.2583 17.9669C45.2961 17.4366 45.2961 17.045 45.2961 16.7002C45.2942 10.8878 41.0865 7.87109 36.2903 7.87109ZM31.7117 15.0513C32.1885 12.8609 34.2754 11.9278 36.1427 11.9278C38.0101 11.9278 39.8415 12.934 40.2805 15.0513H31.7117Z" fill="#455157"/>
</svg>
