<svg width="113" height="35" viewBox="0 0 113 35" fill="none" xmlns="http://www.w3.org/2000/svg">
<path d="M64.8772 1.58909V4.13598C64.8841 4.30678 64.9577 4.46804 65.0823 4.58513C65.2068 4.70222 65.3723 4.76579 65.5432 4.76219H71.459L64.6429 14.5163C64.212 15.1433 64.212 15.8481 64.212 16.2398V18.825C64.212 19.2167 64.6426 19.6084 65.0344 19.4126C68.8733 17.3363 73.5349 17.5322 77.0213 19.3734C77.4519 19.6082 77.8437 19.1775 77.8437 18.7858V16.0829C77.8044 15.7303 77.687 15.3385 77.2561 15.1035C75.2978 14.007 72.9863 13.6936 70.7925 13.7329L76.6684 5.34977C77.2169 4.566 77.5303 4.09617 77.5303 3.74362V1.58909C77.5235 1.41819 77.4499 1.25678 77.3254 1.13956C77.2008 1.02234 77.0352 0.958689 76.8642 0.962289H65.504C65.4205 0.95784 65.337 0.971006 65.259 1.00093C65.1809 1.03086 65.11 1.07687 65.0509 1.13599C64.9918 1.1951 64.9458 1.266 64.9158 1.34406C64.8859 1.42212 64.8727 1.50561 64.8772 1.58909Z" fill="#455157"/>
<path d="M20.024 19.9221H23.4713C23.6405 19.9281 23.806 19.8716 23.9361 19.7632C24.0662 19.6547 24.1518 19.5022 24.1764 19.3346V9.93297C24.1764 9.87158 24.1763 9.80954 24.1762 9.74694C24.174 7.69242 24.171 5.03631 26.5659 5.03631C28.7526 5.03631 28.7165 7.41801 28.6876 9.32225C28.6844 9.53296 28.6813 9.73782 28.6813 9.93297V19.3346C28.6813 19.6481 28.9555 19.9222 29.3081 19.9614H32.7553C32.9263 19.965 33.0918 19.9013 33.2163 19.7841C33.3409 19.6669 33.4144 19.5055 33.4212 19.3346V9.93297C33.4212 9.84321 33.4209 9.74981 33.4206 9.65348C33.4173 8.65671 33.413 7.34649 33.7345 6.52495C33.9016 6.10721 34.1871 5.74743 34.556 5.4899C34.9249 5.23237 35.361 5.08833 35.8107 5.07553C36.8293 5.07553 37.5736 5.42808 37.8478 6.60326C37.9707 7.15659 37.9489 8.43362 37.9338 9.31746C37.9297 9.5599 37.9261 9.77275 37.9261 9.93297V19.3346C37.9261 19.6481 38.2003 19.9222 38.5529 19.9614H41.9614C42.1323 19.965 42.2979 19.9013 42.4224 19.7841C42.5469 19.6669 42.6205 19.5055 42.6272 19.3346V8.1311C42.6272 7.84563 42.6324 7.55497 42.6377 7.26206C42.6676 5.58549 42.6989 3.83571 41.7654 2.56856C40.7861 1.19744 39.2191 0.609855 37.7697 0.609855C35.7324 0.609855 33.8127 1.66751 32.9903 3.90035C32.0501 1.66751 30.6791 0.609855 28.5245 0.609855C26.4092 0.609855 24.8028 1.66751 23.9804 3.90035H23.9021V1.58909C23.8895 1.43072 23.8182 1.28275 23.7023 1.1741C23.5864 1.06544 23.4342 1.0039 23.2753 1.0015H20.0631C19.8922 0.997931 19.7266 1.0616 19.6021 1.17881C19.4776 1.29603 19.404 1.45742 19.3972 1.6283V19.3345C19.4228 19.4877 19.4979 19.6282 19.6112 19.7344C19.7245 19.8405 19.8696 19.9065 20.024 19.9221Z" fill="#455157"/>
<path fill-rule="evenodd" clip-rule="evenodd" d="M95.2365 10.599C95.2365 4.99722 92.4551 0.609855 87.3234 0.609855C82.3093 0.609855 79.5279 4.9188 79.5671 10.4422C79.5671 15.9265 82.3093 20.3139 87.3234 20.3139C92.181 20.3139 95.2365 16.0049 95.2365 10.599ZM84.6205 9.89387C84.6205 7.73934 84.7771 4.2529 87.3234 4.2529C88.4203 4.2529 89.2037 4.72285 89.5955 5.97645C90.0265 7.38679 90.1048 9.18865 90.1048 10.6773C90.1048 12.9493 89.9482 16.6708 87.2843 16.6708C84.6188 16.6708 84.62 12.1759 84.6205 9.98502L84.6205 9.89387Z" fill="#455157"/>
<path d="M98.4094 19.9221H101.857C102.03 19.9205 102.197 19.8565 102.327 19.7413C102.456 19.626 102.54 19.4677 102.562 19.2956V9.73691C102.562 8.52252 102.64 7.4645 103.11 6.36798C103.502 5.50603 104.285 4.95777 105.108 4.95777C107.305 4.95777 107.283 7.34338 107.265 9.25023C107.264 9.41682 107.262 9.57977 107.262 9.73714V19.3735C107.301 19.6476 107.576 19.8825 107.889 19.9217H111.336C111.496 19.9288 111.652 19.8767 111.775 19.7754C111.898 19.6742 111.979 19.531 112.003 19.3735V8.20917C112.003 6.4855 112.003 4.09593 111.102 2.68572C110.122 1.15775 108.594 0.609495 107.067 0.609495C104.677 0.609495 103.345 1.74546 102.366 4.17424H102.288V1.47133C102.253 1.32981 102.173 1.20351 102.06 1.1116C101.947 1.01969 101.806 0.967185 101.661 0.962049H98.4486C98.2855 0.963289 98.1282 1.02342 98.0058 1.13139C97.8835 1.23935 97.8042 1.38788 97.7826 1.54964V19.2953C97.7826 19.6087 98.0569 19.8829 98.4094 19.9221Z" fill="#455157"/>
<path fill-rule="evenodd" clip-rule="evenodd" d="M58.9163 20.0545C59.0638 20.0404 59.2032 19.9805 59.3149 19.883L59.3162 19.8829C59.5665 19.6743 59.8859 19.4015 60.2271 19.1101C60.8471 18.5807 61.539 17.9898 62.0191 17.6108C62.2932 17.415 62.2541 17.0232 62.0191 16.7099C61.9436 16.6014 61.8675 16.4957 61.7921 16.3909C61.2415 15.626 60.7264 14.9104 60.7264 13.4977V8.13099C60.7264 7.95164 60.7274 7.77326 60.7284 7.59604C60.7397 5.52882 60.7501 3.6199 59.1987 2.17668C57.8668 0.883983 55.6731 0.453125 53.9887 0.453125C50.6982 0.453125 47.055 1.66751 46.2716 5.74154C46.1933 6.17252 46.5068 6.36834 46.7809 6.44665L50.1106 6.7992C50.4241 6.7992 50.6199 6.48574 50.6982 6.1724C50.9724 4.76207 52.1476 4.09617 53.4795 4.09617C54.184 4.09617 54.9676 4.3703 55.3984 4.9971C55.8486 5.6205 55.8395 6.45846 55.8314 7.21264C55.8303 7.31148 55.8293 7.40889 55.8293 7.50419V7.93505C55.5045 7.97326 55.1631 8.00942 54.811 8.0467C52.9979 8.23872 50.9011 8.46077 49.3266 9.14943C47.1715 10.0897 45.6437 11.97 45.6437 14.7904C45.6437 18.3551 47.9158 20.1571 50.8146 20.1571C53.2433 20.1571 54.6144 19.5689 56.4947 17.65C56.5863 17.7816 56.6695 17.904 56.7483 18.02C57.2096 18.6984 57.5224 19.1584 58.4925 19.9613C58.6205 20.0359 58.7688 20.0685 58.9163 20.0545ZM55.8287 11.6712C55.8286 11.6016 55.8285 11.5315 55.8285 11.4608V10.7171C53.3214 10.7171 50.6968 11.2656 50.6968 14.2035C50.6968 15.6922 51.4802 16.7106 52.8121 16.7106C53.7914 16.7106 54.6534 16.123 55.2016 15.1437C55.8323 13.9931 55.8306 12.9135 55.8287 11.6712Z" fill="#455157"/>
<path fill-rule="evenodd" clip-rule="evenodd" d="M13.6319 20.0545C13.7795 20.0404 13.9189 19.9805 14.0305 19.883L14.0318 19.8829C14.2821 19.6743 14.6016 19.4015 14.9428 19.1101C15.5627 18.5807 16.2546 17.9898 16.7347 17.6108C17.0089 17.415 16.9698 17.0232 16.7347 16.7099C16.6592 16.6014 16.5832 16.4957 16.5077 16.3909C15.9572 15.626 15.442 14.9104 15.442 13.4977V8.13099C15.442 7.95164 15.443 7.77326 15.444 7.59605C15.4553 5.52882 15.4658 3.6199 13.9143 2.17668C12.5824 0.883983 10.3888 0.453125 8.70432 0.453125C5.41383 0.453125 1.77066 1.66751 0.987249 5.74154C0.908944 6.17252 1.2224 6.36834 1.49653 6.44665L4.82624 6.7992C5.1397 6.7992 5.33552 6.48574 5.41383 6.1724C5.68808 4.76207 6.86325 4.09617 8.19516 4.09617C8.89967 4.09617 9.6832 4.3703 10.1141 4.9971C10.5642 5.6205 10.5552 6.45846 10.547 7.21264C10.546 7.31149 10.5449 7.40889 10.5449 7.50419V7.93505C10.2201 7.97326 9.87874 8.00942 9.52667 8.0467C7.71351 8.23872 5.61677 8.46077 4.04223 9.14943C1.8871 10.0897 0.359375 11.97 0.359375 14.7904C0.359375 18.3551 2.63142 20.1571 5.53027 20.1571C7.95893 20.1571 9.33005 19.5689 11.2103 17.65C11.3019 17.7816 11.3851 17.904 11.464 18.02C11.9252 18.6984 12.238 19.1584 13.2081 19.9613C13.3362 20.0359 13.4844 20.0685 13.6319 20.0545ZM10.5835 11.6712C10.5834 11.6016 10.5833 11.5315 10.5833 11.4608V10.7171C8.07621 10.7171 5.45161 11.2656 5.45161 14.2035C5.45161 15.6922 6.23502 16.7106 7.56693 16.7106C8.54628 16.7106 9.40824 16.123 9.9565 15.1437C10.5872 13.9931 10.5855 12.9135 10.5835 11.6712Z" fill="#455157"/>
<path d="M72.3196 23.6436C71.4972 22.5859 66.8354 23.1343 64.7593 23.4085C64.1325 23.4868 64.0149 22.9385 64.6025 22.5467C68.324 19.9221 74.3958 20.7055 75.1009 21.5673C75.806 22.4292 74.9051 28.5397 71.4181 31.4389C70.8698 31.8698 70.3604 31.6348 70.5957 31.0472L70.6367 30.9447C71.4389 28.9409 73.1282 24.7213 72.3196 23.6436Z" fill="#455157"/>
<path d="M69.6169 26.7385C63.1533 31.5179 53.7518 34.0639 45.6429 34.0639C34.2827 34.0639 24.0977 29.8724 16.3414 22.8996C15.7538 22.3514 16.2631 21.6069 17.0073 22.0378C25.3512 26.8952 35.6538 29.7941 46.3088 29.7941C53.4775 29.7941 61.3904 28.3056 68.6766 25.2108C69.7731 24.7799 70.6745 25.9551 69.6169 26.7385Z" fill="#455157"/>
</svg>
