<svg width="72" height="50" viewBox="0 0 72 50" fill="none" xmlns="http://www.w3.org/2000/svg">
<path d="M67.2507 0C66.8671 0 66.5562 0.311957 66.5562 0.694444V3.47222H63.7784C63.3949 3.47222 63.084 3.78418 63.084 4.16667C63.084 4.54915 63.3949 4.86111 63.7784 4.86111H66.5562V7.63889C66.5562 8.02138 66.8671 8.33333 67.2507 8.33333C67.6342 8.33333 67.9451 8.02138 67.9451 7.63889V4.86111H70.7229C71.1064 4.86111 71.4173 4.54915 71.4173 4.16667C71.4173 3.78418 71.1064 3.47222 70.7229 3.47222H67.9451V0.694444C67.9451 0.311957 67.6342 0 67.2507 0Z" fill="#49DAAD"/>
<path d="M4.75065 31.9443C4.36713 31.9443 4.05621 32.2563 4.05621 32.6388V35.4166H1.27843C0.894903 35.4166 0.583984 35.7285 0.583984 36.111C0.583984 36.4935 0.894903 36.8054 1.27843 36.8054H4.05621V39.5832C4.05621 39.9657 4.36713 40.2777 4.75065 40.2777C5.13418 40.2777 5.4451 39.9657 5.4451 39.5832V36.8054H8.22287C8.6064 36.8054 8.91732 36.4935 8.91732 36.111C8.91732 35.7285 8.6064 35.4166 8.22287 35.4166H5.4451V32.6388C5.4451 32.2563 5.13418 31.9443 4.75065 31.9443Z" fill="#49DAAD"/>
<path d="M67.2507 41.6665C66.8671 41.6665 66.5562 41.9785 66.5562 42.3609V45.1387H63.7784C63.3949 45.1387 63.084 45.4507 63.084 45.8332C63.084 46.2157 63.3949 46.5276 63.7784 46.5276H66.5562V49.3054C66.5562 49.6879 66.8671 49.9998 67.2507 49.9998C67.6342 49.9998 67.9451 49.6879 67.9451 49.3054V46.5276H70.7229C71.1064 46.5276 71.4173 46.2157 71.4173 45.8332C71.4173 45.4507 71.1064 45.1387 70.7229 45.1387H67.9451V42.3609C67.9451 41.9785 67.6342 41.6665 67.2507 41.6665Z" fill="#49DAAD"/>
<path d="M56.1402 29.8611C56.1402 39.4494 48.3674 47.2222 38.7791 47.2222C31.9319 47.2222 26.0105 43.2583 23.1845 37.5L21.418 47.9167M21.418 29.8611C21.418 20.2728 29.1908 12.5 38.7791 12.5C45.38 12.5 51.1206 16.1839 54.0569 21.608L55.4457 12.5" stroke="#FF862E" stroke-width="2" stroke-linecap="round" stroke-linejoin="round"/>
<rect x="44.0352" y="28.9678" width="3.57143" height="7.14286" rx="1.78571" fill="#19BF6F"/>
<rect x="36.8926" y="23.6108" width="3.57143" height="12.5" rx="1.78571" fill="#19BF6F"/>
<rect x="29.75" y="30.7539" width="3.57143" height="5.35714" rx="1.78571" fill="#19BF6F"/>
</svg>
