<svg width="636" height="705" viewBox="0 0 636 705" fill="none" xmlns="http://www.w3.org/2000/svg">
<g filter="url(#filter0_d)">
<rect x="50.8242" y="25" width="535" height="605" fill="#FFD5C2"/>
</g>
<g opacity="0.5">
<mask id="mask0" mask-type="alpha" maskUnits="userSpaceOnUse" x="50" y="25" width="536" height="605">
<rect x="50.8242" y="25" width="535" height="605" fill="#E8F3FB"/>
</mask>
<g mask="url(#mask0)">
<path fill-rule="evenodd" clip-rule="evenodd" d="M452.903 -98.7745L453.635 -101.281C452.587 -101.212 451.545 -101.135 450.51 -101.052L446.023 -105.323C443.625 -107.605 439.674 -107.663 437.198 -105.452L428.947 -98.0817C414.411 -95.1245 401.347 -90.2599 389.609 -82.9259C366.955 -68.7706 351.187 -46.6333 338.455 -16.2518C325.314 15.106 321.892 54.5854 320.779 90.8318C320.363 104.379 320.26 117.341 320.164 129.456L320.163 129.457L320.163 129.458C319.993 150.893 319.844 169.676 318.018 184.358C315.501 204.603 305.095 215.736 293.591 219.51C281.933 223.335 264.256 221.213 243.825 205.223L243.368 204.866C220.737 187.153 183.443 157.965 142.066 141.313C106.611 127.043 65.7873 121.183 28.4676 141.368L14.0383 190.775C17.6254 183.908 21.8712 178.313 26.7621 174.133C57.7695 147.638 94.0925 149.744 131.035 164.613C168.387 179.646 202.941 206.574 225.982 224.606C251.176 244.323 278.964 251.294 302.835 243.462C326.861 235.58 342.048 214.306 345.412 187.254C347.396 171.298 347.577 150.07 347.769 127.521L347.769 127.518C347.87 115.703 347.973 103.525 348.341 91.5517C349.45 55.4578 352.887 19.8477 364.175 -7.08894C375.872 -35.0018 388.922 -51.785 405.078 -61.88C415.954 -68.6759 429.12 -72.9924 445.969 -75.031L446.258 -76.0214C460.944 -69.2673 476.845 -61.2175 492.346 -52.1301C502.913 -45.9352 513.141 -39.3467 522.58 -32.4585L452.903 -98.7745ZM-0.184906 259.407C0.103132 249.964 0.833553 240.577 2.12259 231.574L-13.5438 285.216C-14.8846 280.07 -15.9229 274.578 -16.6658 268.692L-51.3235 259.584C-49.5832 287.586 -42.7526 311.535 -28.138 332.06C-9.78007 357.841 19.2812 376.005 59.3243 390.895C100.654 406.262 152.923 410.824 200.948 412.727C218.898 413.438 236.078 413.786 252.136 414.111C280.545 414.686 305.44 415.19 324.868 417.51C351.658 420.708 366.229 432.633 371.026 445.663C375.887 458.869 372.758 478.75 351.198 501.487L350.716 501.995C326.834 527.181 287.479 568.684 264.666 615.011C245.117 654.709 236.619 700.606 262.708 743.02L327.939 760.163C318.901 755.998 311.56 751.114 306.108 745.528C271.543 710.114 274.984 669.221 295.353 627.858C315.947 586.037 352.258 547.581 376.571 521.94C403.156 493.903 412.894 462.714 402.939 435.675C392.921 408.461 364.993 390.967 329.196 386.693C308.082 384.172 279.948 383.589 250.063 382.969L250.062 382.969L250.062 382.969L250.061 382.969L250.059 382.969L250.058 382.969L250.058 382.969L250.058 382.969L250.057 382.969C234.398 382.645 218.258 382.31 202.395 381.682C154.572 379.787 107.432 375.277 71.9294 362.076C37.8435 349.401 16.4421 335.589 3.06812 319.005C0.859426 302.577 -0.849961 281.21 -0.184906 259.407ZM618.547 612.993L593.472 589.128C601.708 571.547 605.044 556.103 604.124 541.32C602.756 519.362 591.829 496.219 567.387 467.412C543.799 439.612 505.421 413.974 465.032 390.287C451.638 382.43 437.844 374.701 424.461 367.203L424.453 367.198L424.45 367.196C398.904 352.882 374.855 339.407 357.937 327.49C329.254 307.286 314.554 279.26 320.636 251.073C326.678 223.068 352.024 200.547 390.252 188.522C425.212 177.525 477.512 160.961 518.026 134.237C558.097 107.805 583.252 73.9775 572.522 27.373C570.83 20.022 567.122 12.4079 561.553 4.63441L608.748 49.5526C608.341 98.3118 576.093 134.142 537.636 159.509C492.756 189.113 436.168 206.912 401.827 217.714L401.134 217.932C370.133 227.683 356.641 243.458 353.69 257.136C350.779 270.632 356.931 287.676 378.397 302.797C393.964 313.762 415.25 325.675 439.541 339.27L439.542 339.271C453.272 346.955 467.962 355.176 483.121 364.067C523.68 387.855 566.472 415.902 593.931 448.265C620.535 479.62 635.853 508.748 637.77 539.539C639.297 564.051 632.225 587.941 618.547 612.993ZM381.805 774.32C393.716 775.933 406.146 776.924 418.657 777.417C449.808 778.646 480.336 776.754 502.714 774.29L495.332 798.172C494.387 801.228 490.934 802.999 487.619 802.128L381.805 774.32Z" fill="white"/>
</g>
</g>
<defs>
<filter id="filter0_d" x="0.824219" y="0" width="635" height="705" filterUnits="userSpaceOnUse" color-interpolation-filters="sRGB">
<feFlood flood-opacity="0" result="BackgroundImageFix"/>
<feColorMatrix in="SourceAlpha" type="matrix" values="0 0 0 0 0 0 0 0 0 0 0 0 0 0 0 0 0 0 127 0"/>
<feOffset dy="25"/>
<feGaussianBlur stdDeviation="25"/>
<feColorMatrix type="matrix" values="0 0 0 0 0.795833 0 0 0 0 0.795833 0 0 0 0 0.795833 0 0 0 0.05 0"/>
<feBlend mode="normal" in2="BackgroundImageFix" result="effect1_dropShadow"/>
<feBlend mode="normal" in="SourceGraphic" in2="effect1_dropShadow" result="shape"/>
</filter>
</defs>
</svg>
