<svg width="635" height="705" viewBox="0 0 635 705" fill="none" xmlns="http://www.w3.org/2000/svg">
<g filter="url(#filter0_d)">
<rect x="50" y="25" width="535" height="605" fill="#49DAAD"/>
</g>
<g opacity="0.5">
<mask id="mask0" mask-type="alpha" maskUnits="userSpaceOnUse" x="50" y="25" width="535" height="605">
<rect x="50" y="25" width="535" height="605" fill="#E8F3FB"/>
</mask>
<g mask="url(#mask0)">
<path fill-rule="evenodd" clip-rule="evenodd" d="M451.944 -99.2847L452.675 -101.801C451.628 -101.731 450.587 -101.655 449.552 -101.571L445.067 -105.858C442.67 -108.15 438.72 -108.208 436.245 -105.988L427.998 -98.5891C413.466 -95.6197 400.405 -90.735 388.67 -83.3702C366.023 -69.1567 350.26 -46.9284 337.533 -16.422C324.397 15.0646 320.976 54.7064 319.863 91.1017C319.447 104.705 319.344 117.721 319.248 129.886L319.247 129.887C319.077 151.41 318.928 170.271 317.103 185.012C314.587 205.341 304.184 216.52 292.684 220.309C281.03 224.15 263.359 222.018 242.934 205.963L242.478 205.604C219.853 187.819 182.572 158.511 141.209 141.79C105.765 127.462 64.9554 121.577 27.6481 141.846L13.2235 191.455C16.8095 184.56 21.0539 178.942 25.9431 174.746C56.9403 148.142 93.2512 150.256 130.182 165.186C167.522 180.281 202.064 207.32 225.097 225.425C250.283 245.224 278.062 252.224 301.925 244.36C325.943 236.445 341.125 215.083 344.488 187.92C346.471 171.899 346.652 150.583 346.844 127.941L346.844 127.939L346.844 127.938C346.945 116.074 347.048 103.846 347.416 91.8246C348.524 55.5823 351.961 19.8258 363.245 -7.22151C374.938 -35.2491 387.983 -52.1013 404.134 -62.2378C415.007 -69.0617 428.168 -73.3959 445.011 -75.4429L445.3 -76.4373C459.982 -69.6553 475.878 -61.5721 491.375 -52.447C501.939 -46.2266 512.163 -39.611 521.599 -32.6946L451.944 -99.2847ZM-0.994957 260.369C-0.707069 250.888 0.0231483 241.462 1.31176 232.422L-14.3494 286.285C-15.6897 281.118 -16.7276 275.604 -17.4702 269.694L-52.1165 260.548C-50.3768 288.665 -43.5484 312.713 -28.9386 333.322C-10.5868 359.209 18.4648 377.448 58.4948 392.398C99.8109 407.83 152.063 412.41 200.072 414.321C218.016 415.035 235.19 415.384 251.242 415.71C279.642 416.288 304.529 416.794 323.95 419.123C350.732 422.335 365.298 434.308 370.093 447.392C374.953 460.652 371.824 480.615 350.272 503.446L349.79 503.956C325.916 529.245 286.574 570.919 263.768 617.436C244.226 657.297 235.731 703.383 261.812 745.972L327.021 763.185C317.986 759.003 310.648 754.099 305.197 748.49C270.644 712.93 274.084 671.869 294.445 630.336C315.033 588.343 351.331 549.729 375.636 523.983C402.213 495.83 411.947 464.513 401.996 437.363C391.981 410.037 364.062 392.471 328.277 388.179C307.17 385.648 279.045 385.062 249.169 384.441L249.166 384.44L249.16 384.44C233.508 384.114 217.374 383.779 201.518 383.148C153.711 381.245 106.587 376.716 71.0957 363.461C37.021 350.734 15.6266 336.866 2.25702 320.213C0.0490165 303.718 -1.65983 282.263 -0.994957 260.369ZM617.534 615.41L592.468 591.447C600.701 573.794 604.036 558.286 603.116 543.443C601.748 521.394 590.825 498.156 566.391 469.231C542.811 441.317 504.445 415.573 464.07 391.788C450.679 383.899 436.888 376.137 423.508 368.607L423.507 368.606L423.504 368.605L423.502 368.603C397.964 354.23 373.923 340.7 357.01 328.733C328.337 308.446 313.642 280.305 319.721 252.002C325.762 223.882 351.099 201.268 389.314 189.194C424.263 178.152 476.546 161.52 517.047 134.686C557.104 108.146 582.251 74.179 571.525 27.3829C569.833 20.0017 566.126 12.3563 560.559 4.55087L607.738 49.6537C607.332 98.6133 575.094 134.591 536.649 160.063C491.785 189.788 435.215 207.66 400.886 218.506L400.193 218.725C369.202 228.516 355.715 244.356 352.765 258.09C349.854 271.642 356.004 288.756 377.464 303.939C393.025 314.949 414.305 326.912 438.588 340.563L438.589 340.563L438.593 340.565C452.317 348.28 467 356.535 482.153 365.461C522.698 389.347 565.477 417.509 592.926 450.005C619.522 481.489 634.834 510.737 636.751 541.654C638.277 566.267 631.208 590.255 617.534 615.41ZM380.869 777.4C392.776 779.02 405.202 780.015 417.708 780.51C448.849 781.744 479.368 779.844 501.738 777.37L494.358 801.35C493.414 804.419 489.962 806.197 486.648 805.323L380.869 777.4Z" fill="white"/>
</g>
</g>
<defs>
<filter id="filter0_d" x="0" y="0" width="635" height="705" filterUnits="userSpaceOnUse" color-interpolation-filters="sRGB">
<feFlood flood-opacity="0" result="BackgroundImageFix"/>
<feColorMatrix in="SourceAlpha" type="matrix" values="0 0 0 0 0 0 0 0 0 0 0 0 0 0 0 0 0 0 127 0"/>
<feOffset dy="25"/>
<feGaussianBlur stdDeviation="25"/>
<feColorMatrix type="matrix" values="0 0 0 0 0.795833 0 0 0 0 0.795833 0 0 0 0 0.795833 0 0 0 0.05 0"/>
<feBlend mode="normal" in2="BackgroundImageFix" result="effect1_dropShadow"/>
<feBlend mode="normal" in="SourceGraphic" in2="effect1_dropShadow" result="shape"/>
</filter>
</defs>
</svg>
