<svg width="536" height="605" viewBox="0 0 536 605" fill="none" xmlns="http://www.w3.org/2000/svg">
<g opacity="0.5">
<mask id="mask0" mask-type="alpha" maskUnits="userSpaceOnUse" x="0" y="0" width="536" height="605">
<rect x="0.824219" width="535" height="605" fill="#E8F3FB"/>
</mask>
<g mask="url(#mask0)">
<path fill-rule="evenodd" clip-rule="evenodd" d="M402.902 -123.776L403.635 -126.287C402.585 -126.217 401.542 -126.14 400.505 -126.057L396.023 -130.323C393.625 -132.606 389.674 -132.663 387.198 -130.452L378.953 -123.088C364.415 -120.131 351.348 -115.265 339.609 -107.93C316.954 -93.7742 301.186 -71.6365 288.455 -41.2546C275.315 -9.89651 271.893 29.5832 270.78 65.8298C270.364 79.3776 270.262 92.3402 270.166 104.456L270.166 104.456L270.166 104.458C269.996 125.892 269.847 144.675 268.022 159.356C265.505 179.602 255.099 190.735 243.595 194.509C231.936 198.335 214.259 196.212 193.827 180.223L193.371 179.866C170.738 162.153 133.443 132.966 92.0657 116.314C56.6093 102.045 15.785 96.185 -21.5348 116.371L-35.9635 165.778C-32.3764 158.911 -28.1306 153.316 -23.2398 149.137C7.76763 122.641 44.0913 124.746 81.0351 139.614C118.388 154.647 152.943 181.574 175.984 199.606C201.179 219.323 228.968 226.294 252.839 218.462C276.865 210.579 292.053 189.304 295.416 162.252C297.4 146.296 297.58 125.068 297.772 102.518L297.772 102.516L297.772 102.513C297.872 90.6985 297.976 78.5212 298.343 66.5492C299.451 30.4551 302.888 -5.15522 314.176 -32.0922C325.872 -60.0054 338.922 -76.7889 355.078 -86.8842C365.954 -93.6804 379.121 -97.9971 395.969 -100.036L396.257 -101.022C410.943 -94.2678 426.845 -86.2178 442.346 -77.1303C452.913 -70.9354 463.141 -64.3469 472.58 -57.4587L402.902 -123.776ZM-50.1855 234.411C-49.8977 224.968 -49.1675 215.581 -47.8786 206.578L-63.5463 260.228C-64.8888 255.079 -65.9282 249.582 -66.6718 243.692L-101.33 234.584C-99.5891 262.586 -92.7579 286.536 -78.1428 307.06C-59.7844 332.842 -30.7227 351.006 9.321 365.895C50.6513 381.262 102.921 385.823 150.946 387.725C168.896 388.436 186.076 388.784 202.134 389.109C230.543 389.683 255.438 390.187 274.866 392.506C301.656 395.704 316.228 407.629 321.025 420.659C325.887 433.865 322.757 453.747 301.198 476.485L300.716 476.993C276.834 502.179 237.48 543.683 214.668 590.012C195.12 629.711 186.623 675.608 212.713 718.023L277.944 735.165C268.906 731 261.565 726.116 256.113 720.53C221.547 685.116 224.987 644.222 245.355 602.858C265.949 561.036 302.259 522.579 326.571 496.937C353.156 468.899 362.893 437.71 352.939 410.671C342.919 383.456 314.991 365.962 279.194 361.689C258.079 359.168 229.945 358.585 200.059 357.966L200.056 357.966C184.396 357.642 168.256 357.308 152.392 356.679C104.569 354.785 57.4288 350.276 21.9256 337.075C-12.1557 324.403 -33.5562 310.593 -46.9309 294.012C-49.1402 277.584 -50.8502 256.215 -50.1855 234.411ZM568.548 587.993L543.472 564.127C551.708 546.547 555.044 531.103 554.124 516.32C552.756 494.362 541.829 471.219 517.387 442.412C493.799 414.612 455.421 388.974 415.033 365.286C401.637 357.43 387.842 349.7 374.457 342.2L374.453 342.198L374.45 342.196L374.449 342.196C348.904 327.882 324.855 314.407 307.937 302.49C279.254 282.285 264.555 254.26 270.636 226.073C276.678 198.068 302.024 175.546 340.252 163.522C375.212 152.525 427.512 135.961 468.026 109.237C508.097 82.8052 533.252 48.9773 522.522 2.37278C520.83 -4.9782 517.122 -12.5924 511.553 -20.3658L558.748 24.5523C558.341 73.3115 526.093 109.142 487.636 134.509C442.756 164.113 386.168 181.912 351.827 192.713L351.134 192.931C320.133 202.683 306.641 218.458 303.69 232.136C300.779 245.632 306.931 262.676 328.397 277.797C343.964 288.762 365.251 300.675 389.542 314.27C403.272 321.955 417.962 330.176 433.121 339.067C473.68 362.855 516.473 390.902 543.931 423.265C570.535 454.62 585.853 483.748 587.771 514.539C589.297 539.051 582.225 562.941 568.548 587.993ZM331.811 749.321C343.721 750.934 356.151 751.925 368.662 752.418C399.813 753.646 430.342 751.754 452.72 749.29L445.338 773.171C444.394 776.228 440.94 777.999 437.626 777.128L331.811 749.321Z" fill="white"/>
</g>
</g>
</svg>
