<svg width="180" height="206" viewBox="0 0 180 206" fill="none" xmlns="http://www.w3.org/2000/svg">
<rect y="0.0131836" width="180" height="205.987" rx="17.6487" fill="white"/>
<path d="M56.1933 139.848L52.4413 139.02L52.4492 137.933C52.648 137.656 52.8336 137.302 53.0262 136.935C53.1702 136.661 53.3871 136.247 53.4768 136.149C54.0919 135.569 54.7474 134.848 54.9563 133.888C55.1651 132.933 54.9137 132.44 54.7679 132.246C54.7727 131.573 54.7816 130.344 54.5485 129.441C54.529 128.354 54.3163 127.705 53.7984 127.145C53.4096 126.727 52.8575 126.632 52.4149 126.555C52.2713 126.531 52.0559 126.494 51.9911 126.462C51.2463 126.049 50.488 125.844 49.547 125.814C47.647 125.87 45.3044 127.038 44.5071 129.157C44.2803 129.758 44.2738 130.659 44.2869 131.692L44.2822 132.1C44.1434 132.363 43.8849 132.852 44.08 133.808C44.2749 134.773 44.92 135.503 45.5215 136.087C45.6166 136.194 45.8326 136.612 45.9744 136.89C46.1634 137.258 46.3439 137.613 46.5387 137.891L46.5309 138.978L42.7673 139.752C41.1992 140.069 40.0548 141.437 40.0435 143.004L40.029 145.013C40.0257 145.475 40.4063 145.853 40.8786 145.857L57.9904 145.982C58.4627 145.986 58.8487 145.613 58.852 145.151L58.8665 143.142C58.8778 141.576 57.7532 140.19 56.1933 139.848Z" fill="#F0F0F0"/>
<path d="M35.5432 167.918C35.5279 167.754 35.5127 167.589 35.5137 167.44C35.5226 166.221 36.1884 165.254 37.5883 165.264C38.9387 165.274 39.5909 166.185 39.5839 167.157C39.578 167.981 39.1113 168.735 38.1021 169.37L36.315 170.511C34.4949 171.667 33.7936 172.996 33.748 174.742L41.2251 174.797L41.2359 173.298L35.7516 173.258C35.9046 172.6 36.4513 172.159 37.0635 171.768L39.1814 170.433C40.4057 169.667 41.2044 168.553 41.2145 167.153C41.2274 165.373 39.9207 163.865 37.6314 163.848C35.2928 163.831 33.9305 165.452 33.9173 167.28C33.9163 167.412 33.9153 167.561 33.9307 167.709L35.5432 167.918ZM45.6302 169.87C45.9109 169.774 46.2407 169.71 46.5701 169.712C47.6242 169.72 48.7398 170.321 48.7297 171.722C48.7219 172.793 47.9248 173.693 46.4591 173.682C45.1744 173.673 44.1598 172.776 44.1042 171.358L42.5205 171.709C42.6067 173.456 43.9949 175.081 46.4653 175.099C48.9521 175.117 50.3474 173.496 50.3604 171.701C50.3762 169.51 48.6546 168.443 47.09 168.431L50.1572 165.636L50.1677 164.187L42.9212 164.134L42.9105 165.616L48.0159 165.654L44.8493 168.53L45.6302 169.87ZM53.1632 166.68C53.1685 165.939 53.7324 165.399 54.4406 165.404C55.1652 165.409 55.7048 165.957 55.6994 166.698C55.6939 167.456 55.1465 167.996 54.4219 167.991C53.7137 167.985 53.1577 167.438 53.1632 166.68ZM51.7962 166.67C51.7856 168.136 52.9961 169.282 54.4125 169.292C55.8288 169.302 57.0722 168.175 57.0829 166.709C57.0933 165.259 55.8664 164.113 54.45 164.103C53.0337 164.092 51.8067 165.22 51.7962 166.67ZM59.6435 172.461C59.6489 171.719 60.2128 171.18 60.9209 171.185C61.6456 171.19 62.1852 171.738 62.1798 172.479C62.1743 173.237 61.6269 173.777 60.9022 173.771C60.1941 173.766 59.638 173.218 59.6435 172.461ZM58.2766 172.451C58.266 173.917 59.4765 175.062 60.8928 175.073C62.3092 175.083 63.5526 173.955 63.5632 172.489C63.5737 171.039 62.3467 169.894 60.9304 169.883C59.514 169.873 58.2871 171.001 58.2766 172.451ZM54.5696 174.895L62.2886 164.275L60.8063 164.265L53.0544 174.884L54.5696 174.895Z" fill="#A7A7A7"/>
<path d="M134.678 142.648L130.926 141.819L130.934 140.732C131.132 140.455 131.318 140.101 131.511 139.734C131.655 139.46 131.871 139.047 131.961 138.948C132.576 138.368 133.232 137.647 133.441 136.687C133.649 135.732 133.398 135.239 133.252 135.045C133.257 134.372 133.266 133.144 133.033 132.241C133.013 131.153 132.801 130.505 132.283 129.945C131.894 129.526 131.342 129.432 130.899 129.355C130.756 129.33 130.54 129.294 130.476 129.261C129.731 128.849 128.972 128.644 128.031 128.613C126.131 128.67 123.789 129.837 122.991 131.956C122.765 132.557 122.758 133.459 122.771 134.491L122.767 134.9C122.628 135.162 122.369 135.651 122.564 136.607C122.759 137.572 123.404 138.302 124.006 138.887C124.101 138.993 124.317 139.412 124.459 139.689C124.648 140.058 124.828 140.412 125.023 140.69L125.015 141.778L121.252 142.551C119.684 142.868 118.539 144.237 118.528 145.803L118.513 147.812C118.51 148.275 118.891 148.653 119.363 148.656L136.475 148.782C136.947 148.785 137.333 148.413 137.336 147.95L137.351 145.941C137.362 144.375 136.238 142.989 134.678 142.648Z" fill="#F0F0F0"/>
<path d="M117.187 171.341C116.05 171.316 115.215 170.618 115.223 169.58C115.23 168.625 116.009 167.873 117.212 167.882C118.414 167.89 119.182 168.654 119.176 169.609C119.168 170.647 118.323 171.333 117.187 171.341ZM117.151 176.316C115.718 176.306 114.917 175.509 114.924 174.504C114.931 173.483 115.76 172.682 117.177 172.692C118.593 172.702 119.411 173.516 119.403 174.537C119.396 175.542 118.583 176.327 117.151 176.316ZM117.14 177.717C119.594 177.735 121.021 176.394 121.033 174.681C121.042 173.379 120.16 172.401 119.026 172.03C120.017 171.675 120.782 170.692 120.79 169.539C120.803 167.793 119.264 166.562 117.221 166.547C115.179 166.532 113.622 167.74 113.61 169.486C113.601 170.672 114.368 171.634 115.337 172.003C114.198 172.374 113.302 173.323 113.292 174.624C113.28 176.337 114.687 177.699 117.14 177.717ZM125.488 172.572C125.769 172.475 126.099 172.411 126.428 172.414C127.482 172.421 128.598 173.023 128.588 174.423C128.58 175.494 127.783 176.394 126.317 176.383C125.032 176.374 124.018 175.477 123.962 174.06L122.378 174.41C122.465 176.157 123.853 177.782 126.323 177.8C128.81 177.818 130.205 176.198 130.218 174.402C130.234 172.211 128.512 171.144 126.948 171.132L130.015 168.338L130.026 166.888L122.779 166.835L122.768 168.318L127.874 168.355L124.707 171.231L125.488 172.572ZM133.021 169.381C133.026 168.64 133.59 168.1 134.298 168.105C135.023 168.111 135.563 168.658 135.557 169.4C135.552 170.157 135.004 170.697 134.28 170.692C133.572 170.687 133.016 170.139 133.021 169.381ZM131.654 169.371C131.643 170.837 132.854 171.983 134.27 171.993C135.687 172.004 136.93 170.876 136.941 169.41C136.951 167.96 135.724 166.814 134.308 166.804C132.892 166.794 131.665 167.921 131.654 169.371ZM139.501 175.162C139.507 174.42 140.071 173.881 140.779 173.886C141.503 173.891 142.043 174.439 142.038 175.18C142.032 175.938 141.485 176.478 140.76 176.473C140.052 176.467 139.496 175.92 139.501 175.162ZM138.134 175.152C138.124 176.618 139.334 177.764 140.751 177.774C142.167 177.784 143.41 176.657 143.421 175.19C143.432 173.741 142.205 172.595 140.788 172.585C139.372 172.574 138.145 173.702 138.134 175.152ZM134.427 177.596L142.146 166.977L140.664 166.966L132.912 177.585L134.427 177.596Z" fill="#A7A7A7"/>
<rect width="28.9523" height="3.321" rx="1.6605" transform="matrix(0.999973 0.00731349 -0.00723662 0.999974 77.9258 101.125)" fill="#F0F0F0"/>
<path d="M73.6417 77.5346C73.7464 76.0764 74.3115 74.9431 75.3371 74.1349C76.3784 73.3267 77.699 72.9285 79.2992 72.9402C80.3973 72.9482 81.3449 73.1512 82.1421 73.5493C82.9394 73.9473 83.5395 74.4851 83.9425 75.1626C84.3454 75.8402 84.5439 76.6025 84.5377 77.4496C84.5307 78.4222 84.2658 79.2518 83.7432 79.9382C83.2205 80.6247 82.5975 81.0829 81.8742 81.3129L81.8735 81.4071C82.797 81.6962 83.5149 82.2192 84.0271 82.9759C84.5395 83.717 84.7914 84.668 84.783 85.8289C84.7763 86.7544 84.5586 87.5765 84.1298 88.295C83.701 89.0135 83.0694 89.5815 82.2349 89.999C81.4005 90.4008 80.4029 90.5974 79.242 90.5889C77.5478 90.5765 76.1547 90.1349 75.0629 89.2641C73.9868 88.3777 73.4155 87.1185 73.3488 85.4864L75.9372 85.5053C75.994 86.3372 76.3106 87.022 76.8872 87.5596C77.4639 88.0815 78.2464 88.3461 79.2347 88.3533C80.1916 88.3603 80.9308 88.1069 81.4522 87.593C81.9738 87.0634 82.2375 86.3829 82.2436 85.5515C82.2515 84.4533 81.9042 83.6742 81.2015 83.2141C80.5147 82.7385 79.4496 82.4954 78.0064 82.4848L77.3946 82.4803L77.4106 80.2684L78.0459 80.2731C79.3167 80.2667 80.283 80.0619 80.9449 79.6589C81.6224 79.256 81.9643 78.6152 81.9707 77.7367C81.9761 76.9838 81.7373 76.3859 81.2541 75.9431C80.7711 75.4846 80.0825 75.252 79.1883 75.2455C78.3099 75.2391 77.6258 75.4616 77.1362 75.9129C76.6467 76.3486 76.3525 76.8956 76.2536 77.5537L73.6417 77.5346ZM87.2633 86.9766L87.2779 84.9529L95.2664 73.6688L98.5137 73.6925L98.4338 84.7286L100.622 84.7446L100.605 87.0742L98.417 87.0581L98.3911 90.6349L95.7556 90.6156L95.7815 87.0389L87.2633 86.9766ZM95.9761 76.4037L90.3627 84.6695L95.916 84.7102L95.9761 76.4037ZM104.311 87.0307C105.826 85.7396 107.019 84.6815 107.887 83.8564C108.772 83.0157 109.508 82.1426 110.095 81.237C110.682 80.3313 110.979 79.4236 110.985 78.5137C110.992 77.5725 110.77 76.8335 110.319 76.2968C109.883 75.7602 109.187 75.4884 108.23 75.4814C107.305 75.4747 106.581 75.7675 106.059 76.3598C105.553 76.9366 105.281 77.719 105.242 78.707L102.654 78.6881C102.714 76.9001 103.257 75.5392 104.283 74.6054C105.326 73.6561 106.639 73.1872 108.223 73.1988C109.933 73.2113 111.263 73.6916 112.213 74.6399C113.179 75.5882 113.656 76.8468 113.645 78.4155C113.637 79.545 113.339 80.6332 112.751 81.68C112.179 82.7112 111.489 83.6396 110.683 84.4652C109.893 85.2752 108.882 86.2169 107.651 87.2904L106.585 88.2239L114.044 88.2785L114.028 90.5139L102.592 90.4303L102.606 88.4772L104.311 87.0307ZM116.137 76.057L116.154 73.6098L121.049 73.6455L120.925 90.7997L118.219 90.7799L118.325 76.073L116.137 76.057Z" fill="#454545"/>
<path fill-rule="evenodd" clip-rule="evenodd" d="M85.0332 32.4385C58.6287 35.5019 39.1637 58.037 39.1979 84.1323C39.2013 86.7451 37.0972 88.8659 34.4982 88.8693C31.8992 88.8728 29.7895 86.7575 29.7861 84.1447C29.7458 53.2939 52.7418 26.6605 83.9542 23.0393C117.518 19.1453 147.867 43.3417 151.741 77.0836C152.012 79.4472 152.146 81.7968 152.15 84.124C152.153 86.7368 150.049 88.8576 147.45 88.861C144.851 88.8645 142.741 86.7492 142.738 84.1364C142.735 82.1668 142.622 80.1753 142.391 78.1683C139.114 49.6175 113.434 29.1436 85.0332 32.4385Z" fill="#2DC67E" fill-opacity="0.12"/>
<path fill-rule="evenodd" clip-rule="evenodd" d="M85.0332 32.4385C58.6287 35.5019 39.1637 58.037 39.1979 84.1323C39.2013 86.7451 37.0972 88.8659 34.4982 88.8693C31.8992 88.8728 29.7895 86.7575 29.7861 84.1447C29.7458 53.2939 52.7418 26.6605 83.9542 23.0393C102.855 20.8465 120.739 27.5666 133.439 39.8671C135.31 41.68 135.366 44.6748 133.562 46.5564C131.759 48.4379 128.78 48.4936 126.908 46.6807C116.147 36.2574 101.023 30.5835 85.0332 32.4385Z" fill="#18C672"/>
</svg>
