<svg width="420" height="85" viewBox="0 0 420 85" fill="none" xmlns="http://www.w3.org/2000/svg">
<rect y="0.00537109" width="420" height="84.9947" rx="16" fill="white"/>
<rect x="375.836" y="33.4155" width="5.01493" height="25.9045" rx="2.50746" fill="#7A5CFF"/>
<rect x="363.582" y="19.3223" width="5.01493" height="39.9217" rx="2.50746" fill="#7A5CFF"/>
<rect x="350.762" y="49.1826" width="5.01493" height="10.1372" rx="2.50746" fill="#7A5CFF"/>
<rect x="338.508" y="34.7769" width="5.01493" height="24.4682" rx="2.50746" fill="#7A5CFF"/>
<rect x="338.508" y="63.1074" width="5.01493" height="5.15152" rx="2.50746" fill="#DADADA"/>
<rect x="351.045" y="63.1074" width="5.01493" height="5.15152" rx="2.50746" fill="#DADADA"/>
<rect x="363.582" y="63.1074" width="5.01493" height="5.15152" rx="2.50746" fill="#DADADA"/>
<rect x="376.119" y="63.1074" width="5.01493" height="5.15152" rx="2.50746" fill="#DADADA"/>
<path d="M291.315 51.1157V50.0757H293.395V57.3657H292.245V51.1157H291.315ZM294.811 51.1157V50.0757H296.891V57.3657H295.741V51.1157H294.811Z" fill="#B8B8B8"/>
<path d="M292.865 27.0488H298.895C300 27.0488 300.895 27.9443 300.895 29.0488V33.6196C300.895 34.5428 300.147 35.2913 299.223 35.2913V37.3519L296.716 35.2913H292.865C291.761 35.2913 290.865 34.3958 290.865 33.2913V29.0488C290.865 27.9443 291.761 27.0488 292.865 27.0488Z" fill="#D0D0D0"/>
<path d="M223.448 51.0557H220.098V53.0457C220.238 52.8591 220.445 52.7024 220.718 52.5757C220.998 52.4491 221.295 52.3857 221.608 52.3857C222.168 52.3857 222.622 52.5057 222.968 52.7457C223.322 52.9857 223.572 53.2891 223.718 53.6557C223.872 54.0224 223.948 54.4091 223.948 54.8157C223.948 55.3091 223.852 55.7491 223.658 56.1357C223.472 56.5157 223.188 56.8157 222.808 57.0357C222.435 57.2557 221.975 57.3657 221.428 57.3657C220.702 57.3657 220.118 57.1857 219.678 56.8257C219.238 56.4657 218.975 55.9891 218.888 55.3957H219.998C220.072 55.7091 220.235 55.9591 220.488 56.1457C220.742 56.3257 221.058 56.4157 221.438 56.4157C221.912 56.4157 222.265 56.2724 222.498 55.9857C222.738 55.6991 222.858 55.3191 222.858 54.8457C222.858 54.3657 222.738 53.9991 222.498 53.7457C222.258 53.4857 221.905 53.3557 221.438 53.3557C221.112 53.3557 220.835 53.4391 220.608 53.6057C220.388 53.7657 220.228 53.9857 220.128 54.2657H219.048V50.0557H223.448V51.0557ZM226.535 55.9957L225.325 58.7557H224.585L225.295 55.9957H226.535ZM227.381 53.6257C227.381 52.4724 227.575 51.5724 227.961 50.9257C228.355 50.2724 229.028 49.9457 229.981 49.9457C230.935 49.9457 231.605 50.2724 231.991 50.9257C232.385 51.5724 232.581 52.4724 232.581 53.6257C232.581 54.7924 232.385 55.7057 231.991 56.3657C231.605 57.0191 230.935 57.3457 229.981 57.3457C229.028 57.3457 228.355 57.0191 227.961 56.3657C227.575 55.7057 227.381 54.7924 227.381 53.6257ZM231.461 53.6257C231.461 53.0857 231.425 52.6291 231.351 52.2557C231.285 51.8824 231.145 51.5791 230.931 51.3457C230.718 51.1057 230.401 50.9857 229.981 50.9857C229.561 50.9857 229.245 51.1057 229.031 51.3457C228.818 51.5791 228.675 51.8824 228.601 52.2557C228.535 52.6291 228.501 53.0857 228.501 53.6257C228.501 54.1857 228.535 54.6557 228.601 55.0357C228.668 55.4157 228.808 55.7224 229.021 55.9557C229.241 56.1891 229.561 56.3057 229.981 56.3057C230.401 56.3057 230.718 56.1891 230.931 55.9557C231.151 55.7224 231.295 55.4157 231.361 55.0357C231.428 54.6557 231.461 54.1857 231.461 53.6257ZM233.788 53.6257C233.788 52.4724 233.981 51.5724 234.368 50.9257C234.761 50.2724 235.434 49.9457 236.388 49.9457C237.341 49.9457 238.011 50.2724 238.398 50.9257C238.791 51.5724 238.988 52.4724 238.988 53.6257C238.988 54.7924 238.791 55.7057 238.398 56.3657C238.011 57.0191 237.341 57.3457 236.388 57.3457C235.434 57.3457 234.761 57.0191 234.368 56.3657C233.981 55.7057 233.788 54.7924 233.788 53.6257ZM237.868 53.6257C237.868 53.0857 237.831 52.6291 237.758 52.2557C237.691 51.8824 237.551 51.5791 237.338 51.3457C237.124 51.1057 236.808 50.9857 236.388 50.9857C235.968 50.9857 235.651 51.1057 235.438 51.3457C235.224 51.5791 235.081 51.8824 235.008 52.2557C234.941 52.6291 234.908 53.0857 234.908 53.6257C234.908 54.1857 234.941 54.6557 235.008 55.0357C235.074 55.4157 235.214 55.7224 235.428 55.9557C235.648 56.1891 235.968 56.3057 236.388 56.3057C236.808 56.3057 237.124 56.1891 237.338 55.9557C237.558 55.7224 237.701 55.4157 237.768 55.0357C237.834 54.6557 237.868 54.1857 237.868 53.6257ZM240.194 53.6257C240.194 52.4724 240.387 51.5724 240.774 50.9257C241.167 50.2724 241.84 49.9457 242.794 49.9457C243.747 49.9457 244.417 50.2724 244.804 50.9257C245.197 51.5724 245.394 52.4724 245.394 53.6257C245.394 54.7924 245.197 55.7057 244.804 56.3657C244.417 57.0191 243.747 57.3457 242.794 57.3457C241.84 57.3457 241.167 57.0191 240.774 56.3657C240.387 55.7057 240.194 54.7924 240.194 53.6257ZM244.274 53.6257C244.274 53.0857 244.237 52.6291 244.164 52.2557C244.097 51.8824 243.957 51.5791 243.744 51.3457C243.53 51.1057 243.214 50.9857 242.794 50.9857C242.374 50.9857 242.057 51.1057 241.844 51.3457C241.63 51.5791 241.487 51.8824 241.414 52.2557C241.347 52.6291 241.314 53.0857 241.314 53.6257C241.314 54.1857 241.347 54.6557 241.414 55.0357C241.48 55.4157 241.62 55.7224 241.834 55.9557C242.054 56.1891 242.374 56.3057 242.794 56.3057C243.214 56.3057 243.53 56.1891 243.744 55.9557C243.964 55.7224 244.107 55.4157 244.174 55.0357C244.24 54.6557 244.274 54.1857 244.274 53.6257Z" fill="#B8B8B8"/>
<ellipse cx="234.446" cy="30.913" rx="6.26866" ry="6.43939" fill="#D0D0D0"/>
<path d="M234.339 30.6484C234.339 30.4824 234.286 30.3457 234.181 30.2383C234.075 30.1289 233.899 30.0312 233.653 29.9453C233.407 29.8574 233.216 29.7764 233.079 29.7021C232.624 29.458 232.396 29.0967 232.396 28.6182C232.396 28.2939 232.495 28.0273 232.692 27.8184C232.89 27.6094 233.157 27.4854 233.495 27.4463V26.8076H233.964V27.4521C234.304 27.501 234.566 27.6455 234.752 27.8857C234.938 28.124 235.03 28.4346 235.03 28.8174H234.321C234.321 28.5713 234.266 28.3779 234.154 28.2373C234.045 28.0947 233.896 28.0234 233.706 28.0234C233.519 28.0234 233.372 28.0742 233.267 28.1758C233.161 28.2773 233.108 28.4229 233.108 28.6123C233.108 28.7822 233.16 28.9189 233.264 29.0225C233.369 29.124 233.547 29.2207 233.797 29.3125C234.047 29.4043 234.243 29.4893 234.386 29.5674C234.528 29.6455 234.648 29.7354 234.746 29.8369C234.844 29.9365 234.919 30.0518 234.972 30.1826C235.024 30.3135 235.051 30.4668 235.051 30.6426C235.051 30.9727 234.949 31.2402 234.746 31.4453C234.545 31.6504 234.264 31.7715 233.902 31.8086V32.3799H233.437V31.8115C233.05 31.7686 232.752 31.6299 232.543 31.3955C232.336 31.1611 232.232 30.8506 232.232 30.4639H232.944C232.944 30.71 233.006 30.9004 233.129 31.0352C233.254 31.1699 233.43 31.2373 233.656 31.2373C233.879 31.2373 234.048 31.1836 234.163 31.0762C234.28 30.9688 234.339 30.8262 234.339 30.6484Z" fill="white"/>
<rect x="93.0703" y="22.6553" width="84.0343" height="5.75758" rx="2" fill="#E9E9E9"/>
<rect x="92.7754" y="37.3521" width="50.4442" height="5.75758" rx="2" fill="#E9E9E9"/>
<rect x="92.7754" y="56.6685" width="26.3284" height="6.43939" rx="2" fill="#E9E9E9"/>
<rect x="15.0449" y="12.8843" width="56.812" height="58.3557" rx="12" fill="#7A5CFF"/>
<path d="M52.6816 44.3478C52.679 43.6085 52.463 42.887 52.0614 42.2766C51.6599 41.6662 51.0914 41.195 50.4293 40.9239L52.6461 32.3027C52.6924 32.1191 52.6972 31.9268 52.6602 31.741C52.6232 31.5551 52.5453 31.3806 52.4327 31.2312C52.3176 31.0912 52.1737 30.9798 52.0116 30.9052C51.8495 30.8306 51.6734 30.7947 51.4962 30.8001H35.2557L34.8645 29.2483C34.7965 28.9859 34.6468 28.7542 34.4388 28.5893C34.2309 28.4245 33.9762 28.3357 33.7146 28.3369H31.3438V30.8001H32.8018L35.7417 42.2048C35.8112 42.4735 35.9662 42.7098 36.1814 42.8753C36.3967 43.0408 36.6595 43.1257 36.9272 43.1162H49.1253C49.4397 43.1162 49.7412 43.2459 49.9636 43.4769C50.1859 43.7079 50.3108 44.0211 50.3108 44.3478C50.3108 44.6744 50.1859 44.9877 49.9636 45.2186C49.7412 45.4496 49.4397 45.5794 49.1253 45.5794H33.7146C33.4002 45.5794 33.0987 45.7091 32.8764 45.9401C32.6541 46.1711 32.5292 46.4843 32.5292 46.811C32.5292 47.1376 32.6541 47.4509 32.8764 47.6819C33.0987 47.9128 33.4002 48.0426 33.7146 48.0426H35.1134C34.9185 48.6007 34.8558 49.1993 34.9308 49.7879C35.0058 50.3765 35.2162 50.9376 35.5441 51.4238C35.8721 51.9099 36.308 52.3069 36.815 52.5809C37.3219 52.8549 37.8849 52.998 38.4564 52.998C39.0278 52.998 39.5909 52.8549 40.0978 52.5809C40.6047 52.3069 41.0406 51.9099 41.3686 51.4238C41.6966 50.9376 41.907 50.3765 41.982 49.7879C42.0569 49.1993 41.9943 48.6007 41.7993 48.0426H44.597C44.4195 48.5507 44.3515 49.0932 44.3978 49.6316C44.4441 50.1701 44.6035 50.6914 44.8649 51.1588C45.1263 51.6263 45.4832 52.0284 45.9105 52.3369C46.3377 52.6454 46.825 52.8528 47.3378 52.9443C47.8506 53.0358 48.3765 53.0094 48.8784 52.8667C49.3802 52.7241 49.8459 52.4688 50.2424 52.1188C50.639 51.7688 50.9568 51.3327 51.1734 50.8412C51.3901 50.3497 51.5002 49.8148 51.4962 49.2742C51.494 48.6379 51.3305 48.0134 51.022 47.4637C51.5289 47.1317 51.9469 46.6719 52.237 46.1272C52.5272 45.5824 52.6801 44.9704 52.6816 44.3478ZM48.0466 40.653H37.8637L35.8958 33.2633H49.9551L48.0466 40.653ZM38.4564 50.5058C38.2219 50.5058 37.9927 50.4336 37.7978 50.2982C37.6028 50.1629 37.4509 49.9705 37.3612 49.7455C37.2715 49.5205 37.248 49.2728 37.2937 49.0339C37.3395 48.795 37.4524 48.5756 37.6182 48.4033C37.7839 48.2311 37.9952 48.1138 38.2251 48.0662C38.4551 48.0187 38.6934 48.0431 38.91 48.1363C39.1266 48.2295 39.3118 48.3874 39.442 48.5899C39.5723 48.7925 39.6418 49.0306 39.6418 49.2742C39.6418 49.6008 39.5169 49.9141 39.2946 50.1451C39.0723 50.376 38.7708 50.5058 38.4564 50.5058ZM47.9399 50.5058C47.7054 50.5058 47.4762 50.4336 47.2813 50.2982C47.0864 50.1629 46.9344 49.9705 46.8447 49.7455C46.755 49.5205 46.7315 49.2728 46.7772 49.0339C46.823 48.795 46.9359 48.5756 47.1017 48.4033C47.2674 48.2311 47.4787 48.1138 47.7086 48.0662C47.9386 48.0187 48.1769 48.0431 48.3935 48.1363C48.6101 48.2295 48.7953 48.3874 48.9255 48.5899C49.0558 48.7925 49.1253 49.0306 49.1253 49.2742C49.1253 49.6008 49.0004 49.9141 48.7781 50.1451C48.5558 50.376 48.2543 50.5058 47.9399 50.5058Z" fill="white"/>
</svg>
