<svg width="130" height="31" viewBox="0 0 130 31" fill="none" xmlns="http://www.w3.org/2000/svg">
<path d="M17.549 9.21109C16.5365 8.87172 15.5241 8.73597 14.5116 8.73597C14.4441 8.73597 14.3767 8.73597 14.3767 8.73597C14.3092 8.73597 14.2417 8.73597 14.2417 8.73597C12.9592 8.73597 11.6768 9.00747 10.4619 9.48258C10.4619 9.48258 10.4619 9.48258 10.3944 9.48258C10.3269 9.48258 10.3269 9.48258 10.2594 9.48258L9.51694 9.88982C7.42456 10.9758 5.66967 12.8084 4.65723 14.9803C3.91477 16.5414 3.50979 18.3061 3.50979 20.0708C3.50979 20.2745 3.50979 20.4102 3.50979 20.6138V20.6817C3.50979 20.8853 3.50979 21.0211 3.57729 21.2247V21.2926C3.57729 21.4283 3.64479 21.6319 3.64479 21.8356V21.9034C3.64479 22.1071 3.71228 22.2428 3.71228 22.4464V22.5143C3.77978 22.7179 3.77978 22.8537 3.84727 23.0573V23.1252C3.91477 23.2609 3.91477 23.3967 3.98227 23.5324C2.90233 22.65 1.95738 21.5641 1.28242 20.3423C0.404976 18.6455 0 16.9487 0 15.184C0 11.3152 2.09238 7.78574 5.39968 6.08891C6.7496 5.41017 8.23451 5.00293 9.71943 5.00293C11.2718 5.00293 12.6893 5.3423 14.1067 6.08891C14.1742 6.15678 14.3092 6.22465 14.4441 6.29253C14.4441 6.29253 14.5116 6.29253 14.5116 6.3604H14.5791C14.6466 6.42827 14.7141 6.42827 14.7816 6.49615C14.7816 6.49615 14.8491 6.49615 14.8491 6.56402C14.9166 6.63189 14.9841 6.63189 15.0516 6.69977L15.1191 6.76764L15.1866 6.83551C15.2541 6.90339 15.3216 6.90339 15.3891 6.97126L15.5241 7.03914C15.5916 7.10701 15.6591 7.10701 15.7266 7.17488C15.7941 7.17488 15.7941 7.24276 15.8616 7.24276C15.9291 7.31063 15.9966 7.31063 15.9966 7.3785C16.0641 7.44638 16.0641 7.44638 16.1315 7.51425C16.199 7.58212 16.2665 7.58212 16.2665 7.65C16.334 7.71787 16.334 7.71787 16.4015 7.78574C16.469 7.85362 16.469 7.85362 16.5365 7.92149C16.604 7.98936 16.604 7.98936 16.6715 8.05724C16.739 8.12511 16.739 8.19299 16.8065 8.19299C16.874 8.26086 16.874 8.32873 16.9415 8.32873C17.009 8.39661 17.009 8.46448 17.0765 8.46448L17.144 8.53235C17.2115 8.60023 17.2115 8.6681 17.279 8.73597L17.3465 8.80385C17.4815 9.00747 17.4815 9.07534 17.549 9.21109Z" fill="#C8F9EA"/>
<path d="M22.2043 26.0445C21.3944 27.1983 20.3144 28.2164 19.0995 28.8951C17.6146 29.7775 15.9947 30.1847 14.3073 30.1847C10.595 30.1847 7.28773 28.0128 5.60033 24.5512C4.92537 23.1259 4.58789 21.6327 4.58789 20.0037C4.58789 18.3747 4.92537 16.8815 5.60033 15.4562C5.66783 15.3204 5.73532 15.2526 5.80282 15.1168C5.80282 15.1168 5.80282 15.0489 5.87031 15.0489V14.9811C5.93781 14.9132 5.93781 14.8453 6.00531 14.7774C6.00531 14.7774 6.00531 14.7096 6.0728 14.7096L6.1403 14.6417C6.20779 14.5738 6.20779 14.506 6.27529 14.4381L6.34278 14.3702L6.41028 14.3023C6.47778 14.2345 6.47778 14.1666 6.54527 14.0987L6.61277 14.0308C6.68026 13.963 6.68026 13.8951 6.74776 13.8272C6.74776 13.7593 6.81526 13.7593 6.88275 13.6915C6.95025 13.6236 6.95025 13.5557 7.01774 13.4878C7.08524 13.42 7.08524 13.42 7.15274 13.3521C7.22023 13.2842 7.22023 13.2164 7.28773 13.2164C7.35522 13.1485 7.35522 13.1485 7.42272 13.0806C7.49022 13.0127 7.49022 12.9449 7.55771 12.9449C7.62521 12.877 7.62521 12.877 7.6927 12.8091C7.7602 12.7412 7.8277 12.6734 7.8277 12.6734C7.89519 12.6055 7.89519 12.6055 7.96269 12.5376C8.03018 12.4697 8.09768 12.4697 8.09768 12.4019L8.16518 12.334C8.23267 12.2661 8.30017 12.2661 8.30017 12.1983L8.36766 12.1304L8.43516 12.0625C8.50266 11.9946 8.57015 11.9946 8.63765 11.9268C8.30017 12.9449 8.16518 14.0308 8.16518 15.1168C8.16518 15.1847 8.16518 15.2526 8.16518 15.3204C8.16518 15.3883 8.16518 15.4562 8.16518 15.4562C8.16518 16.8137 8.43516 18.1711 8.90763 19.3928C8.90763 19.4607 8.90763 19.5286 8.90763 19.5286L9.31261 20.3431C10.325 22.515 12.0799 24.3476 14.1723 25.4336C15.7247 26.2481 17.3446 26.6553 19.032 26.6553C19.167 26.6553 19.3695 26.6553 19.572 26.6553H19.6395C19.7745 26.6553 19.977 26.6553 20.1795 26.5874H20.247C20.3819 26.5874 20.5844 26.5196 20.7194 26.5196H20.7869C20.9894 26.5196 21.1244 26.4517 21.2594 26.4517H21.3269C21.5294 26.3838 21.6644 26.3838 21.7994 26.3159H21.8669C21.9343 26.1123 22.0693 26.0445 22.2043 26.0445Z" fill="#C8F9EA"/>
<path d="M28.6876 15.1839C28.6876 19.0527 26.5953 22.5821 23.2879 24.2789C21.938 24.9577 20.4531 25.3649 18.9682 25.3649C18.4282 25.3649 17.8208 25.2971 17.2808 25.2292C16.3359 25.0934 15.4584 24.7541 14.6485 24.2789C14.5135 24.2111 14.446 24.1432 14.311 24.0753C14.311 24.0753 14.2435 24.0753 14.2435 24.0075H14.176C14.1085 23.9396 14.041 23.9396 13.9735 23.8717L13.906 23.8038L13.8385 23.736C13.771 23.6681 13.7035 23.6681 13.636 23.6002L13.5685 23.5323L13.501 23.6002C13.4335 23.5323 13.366 23.5323 13.366 23.4645L13.2985 23.3966C13.231 23.3287 13.1636 23.3287 13.1636 23.2608C13.0961 23.2608 13.0961 23.193 13.0286 23.193C12.9611 23.1251 12.8936 23.1251 12.8936 23.0572C12.8261 22.9894 12.8261 22.9894 12.7586 22.9215C12.6911 22.8536 12.6236 22.8536 12.6236 22.7857C12.5561 22.7179 12.5561 22.7179 12.4886 22.65C12.4211 22.5821 12.4211 22.5821 12.3536 22.5142C12.2861 22.4464 12.2861 22.4464 12.2186 22.3785C12.1511 22.3106 12.1511 22.2427 12.0836 22.2427C12.0161 22.1749 12.0161 22.1749 11.9486 22.107C11.8811 22.0391 11.8811 21.9712 11.8136 21.9712C11.8136 21.9034 11.7461 21.9034 11.7461 21.8355C11.6786 21.7676 11.6786 21.6998 11.6111 21.6998V21.6319C11.6111 21.564 11.5436 21.564 11.5436 21.4961C11.4762 21.4283 11.4762 21.3604 11.4087 21.3604L11.1387 21.2246C12.1511 21.564 13.1636 21.6998 14.176 21.6998C14.2435 21.6998 14.311 21.6998 14.3785 21.6998C14.446 21.6998 14.5135 21.6998 14.5135 21.6998C15.7959 21.6998 17.0783 21.4283 18.2932 20.9531C18.2932 20.9531 18.2932 20.9531 18.3607 20.9531C18.4282 20.9531 18.4282 20.9531 18.4957 20.9531L19.2382 20.5459C21.3306 19.4599 23.0855 17.6273 24.0979 15.4554C24.8404 13.8943 25.2453 12.1296 25.2453 10.3649C25.2453 10.1613 25.2453 10.0255 25.2453 9.82188V9.75401C25.2453 9.61826 25.2453 9.41464 25.1778 9.21102V9.14315C25.1778 8.93953 25.1103 8.80378 25.1103 8.60016V8.53229C25.1103 8.32867 25.0428 8.19292 25.0428 7.9893V7.92142C24.9753 7.7178 24.9753 7.58206 24.9079 7.37844V7.31056C24.8404 7.17481 24.8404 7.03907 24.7729 6.90332C25.8528 7.78568 26.7977 8.87165 27.4727 10.0934C28.2826 11.7223 28.6876 13.4192 28.6876 15.1839Z" fill="#C8F9EA"/>
<path d="M24.1028 10.3656C24.1028 11.9946 23.7653 13.4878 23.0903 14.9131C23.0228 15.0489 22.9554 15.1167 22.8879 15.2525C22.8879 15.2525 22.8879 15.3204 22.8204 15.3204V15.3882C22.7529 15.4561 22.7529 15.524 22.6854 15.5919C22.6854 15.5919 22.6854 15.6597 22.6179 15.6597V15.7955C22.5504 15.8634 22.5504 15.9312 22.4829 15.9991L22.4154 16.067V16.1348C22.3479 16.2027 22.3479 16.2706 22.2804 16.3385L22.2129 16.4063C22.1454 16.4742 22.1454 16.5421 22.0779 16.61C22.0779 16.6778 22.0104 16.6778 22.0104 16.7457C21.9429 16.8136 21.9429 16.8815 21.8754 16.9493C21.8079 17.0172 21.8079 17.0172 21.7404 17.0851C21.6054 17.0851 21.6054 17.153 21.5379 17.2208C21.4704 17.2887 21.4704 17.2887 21.4029 17.3566C21.3354 17.4244 21.3354 17.4923 21.268 17.4923C21.2005 17.5602 21.2005 17.5602 21.133 17.6281C21.0655 17.6959 20.998 17.7638 20.998 17.7638C20.9305 17.8317 20.9305 17.8996 20.863 17.8996C20.7955 17.9674 20.728 17.9674 20.728 18.0353L20.6605 18.1032C20.593 18.1711 20.5255 18.1711 20.458 18.2389L20.3905 18.3068C20.323 18.3747 20.2555 18.3747 20.188 18.4425C20.5255 17.4244 20.6605 16.3385 20.6605 15.2525C20.6605 15.1846 20.6605 15.1167 20.6605 15.0489C20.6605 14.981 20.6605 14.9131 20.6605 14.9131C20.6605 13.5557 20.3905 12.1982 19.918 10.9765C19.918 10.9086 19.918 10.8407 19.918 10.8407L19.5131 10.0262C18.5006 7.85428 16.7457 6.02169 14.6533 4.93572C13.1009 4.25698 11.481 3.84974 9.72614 3.84974C9.52365 3.84974 9.38866 3.84974 9.18617 3.84974H9.11867C8.98368 3.84974 8.78119 3.84974 8.5787 3.91761H8.51121C8.37622 3.91761 8.17373 3.98549 8.03874 3.98549H7.97124C7.83625 3.98549 7.63376 4.05336 7.49877 4.05336H7.43127C7.22878 4.12123 7.09379 4.12123 6.9588 4.18911H6.8913C6.75631 4.25698 6.62132 4.32485 6.48633 4.39273C7.29628 3.23888 8.37622 2.22078 9.59114 1.54204C11.0086 0.659685 12.696 0.18457 14.3834 0.18457C18.0956 0.18457 21.4029 2.35652 23.0903 5.81807C23.7653 7.24342 24.1028 8.73663 24.1028 10.3656Z" fill="#C8F9EA"/>
<path d="M14.3828 17.4924C15.6502 17.4924 16.6776 16.4592 16.6776 15.1847C16.6776 13.9101 15.6502 12.877 14.3828 12.877C13.1153 12.877 12.0879 13.9101 12.0879 15.1847C12.0879 16.4592 13.1153 17.4924 14.3828 17.4924Z" fill="#C8F9EA"/>
<path d="M43.0616 9.41554H46.3013V20.1396C46.3013 21.9043 45.6939 23.2617 44.5465 24.1441C43.399 25.0943 41.9816 25.5016 40.3617 25.5016C37.7969 25.5016 36.042 24.6192 35.0296 22.7866L37.9319 21.0898C38.4718 22.04 39.2818 22.5151 40.4967 22.5151C42.1166 22.5151 43.0616 21.6328 43.0616 20.0717V19.0536C42.2516 20.0717 41.1717 20.5468 39.7543 20.5468C38.2019 20.5468 36.8519 20.0038 35.8395 18.85C34.7596 17.6961 34.2871 16.3386 34.2871 14.7775C34.2871 13.2165 34.8271 11.859 35.8395 10.773C36.9194 9.61916 38.2019 9.07617 39.7543 9.07617C41.1717 9.07617 42.2516 9.55129 42.9941 10.5694V9.41554H43.0616ZM40.2942 17.4246C41.1042 17.4246 41.7116 17.1531 42.2516 16.678C42.7916 16.2029 42.9941 15.592 42.9941 14.7775C42.9941 13.9631 42.7241 13.3522 42.2516 12.8771C41.7791 12.402 41.1042 12.1305 40.2942 12.1305C39.4843 12.1305 38.8768 12.402 38.3369 12.8771C37.7969 13.3522 37.5944 13.9631 37.5944 14.7775C37.5944 15.592 37.8644 16.2029 38.3369 16.678C38.8093 17.1531 39.5518 17.4246 40.2942 17.4246Z" fill="#C8F9EA"/>
<path d="M52.1092 11.3834C52.5141 9.95804 53.9316 9.14355 55.484 9.14355V12.9445C54.674 12.8087 53.8641 12.9445 53.1891 13.3517C52.5142 13.759 52.1092 14.5056 52.1092 15.5237V20.6142H48.7344V9.41505H52.1092V11.3834Z" fill="#C8F9EA"/>
<path d="M62.0939 21.0214C60.4065 21.0214 59.0566 20.4784 57.9092 19.3246C56.7618 18.1707 56.1543 16.7454 56.1543 15.1164C56.1543 13.4875 56.7618 12.0621 57.9092 10.9083C59.0566 9.75442 60.474 9.14355 62.0939 9.14355C63.7138 9.14355 65.1312 9.75442 66.2787 10.9083C67.4261 12.0621 68.0335 13.4875 68.0335 15.1164C68.0335 16.7454 67.4261 18.1707 66.2787 19.3246C65.1312 20.4784 63.7813 21.0214 62.0939 21.0214ZM62.0939 17.6956C62.8364 17.6956 63.4438 17.4241 63.9163 16.949C64.3888 16.4739 64.6588 15.7952 64.6588 15.0485C64.6588 14.3019 64.3888 13.6232 63.9163 13.1481C63.4438 12.673 62.8364 12.4015 62.0939 12.4015C61.3515 12.4015 60.744 12.673 60.2715 13.1481C59.7991 13.6232 59.5291 14.3019 59.5291 15.0485C59.5291 15.7952 59.7991 16.4739 60.2715 16.949C60.744 17.4241 61.3515 17.6956 62.0939 17.6956Z" fill="#C8F9EA"/>
<path d="M81.8027 9.41504H85.38L81.8027 20.6821H78.6979L76.8756 14.6413L75.0532 20.6821H71.9484L68.3711 9.41504H71.9484L73.5683 15.4558L75.3232 9.41504H78.428L80.1829 15.4558L81.8027 9.41504Z" fill="#C8F9EA"/>
<path d="M93.3455 12.6736H91.0507V16.6781C91.0507 17.5605 91.7256 17.7641 93.3455 17.6283V20.6826C91.1857 20.8863 89.7683 20.6826 88.8908 20.0718C88.0809 19.393 87.6759 18.3071 87.6759 16.6781V12.6736H85.8535V9.41564H87.6759V7.24369L91.0507 6.22559V9.34777H93.3455V12.6736Z" fill="#C8F9EA"/>
<path d="M104.756 10.298C105.566 11.1125 105.971 12.2664 105.971 13.6917V20.6148H102.596V14.1668C102.596 12.8094 101.786 12.1306 100.639 12.1306C99.3566 12.1306 98.5467 12.9451 98.5467 14.4383V20.6148H95.1719V4.86816H98.5467V10.4338C99.2216 9.48356 100.302 9.07632 101.719 9.07632C103.001 9.07632 104.014 9.48356 104.756 10.298Z" fill="#C8F9EA"/>
<path d="M115.552 9.41504H118.927V20.682H115.552V19.5961C114.877 20.5463 113.797 20.9535 112.38 20.9535C111.165 20.9535 110.153 20.5463 109.41 19.7318C108.6 18.9173 108.195 17.7635 108.195 16.3381V9.41504H111.57V15.7952C111.57 17.1526 112.38 17.8314 113.527 17.8314C114.81 17.8314 115.62 17.0169 115.62 15.5237V9.41504H115.552Z" fill="#C8F9EA"/>
<path d="M126.423 13.6911C127.975 14.0304 130 14.8449 130 17.2884C130 18.5101 129.528 19.4603 128.65 20.0712C127.773 20.682 126.625 21.0214 125.343 21.0214C122.981 21.0214 121.361 20.1391 120.551 18.3065L123.453 16.6096C123.723 17.492 124.398 17.9671 125.343 17.9671C126.153 17.9671 126.558 17.7635 126.558 17.2884C126.558 16.8133 125.68 16.5418 124.601 16.2703C123.048 15.863 121.023 15.0486 121.023 12.8087C121.023 11.6549 121.428 10.7046 122.306 10.0938C123.183 9.41505 124.196 9.14355 125.41 9.14355C127.3 9.14355 128.853 10.0259 129.798 11.587L126.895 13.0802C126.558 12.4015 126.018 12.0621 125.41 12.0621C124.803 12.0621 124.466 12.2657 124.466 12.673C124.466 13.1481 125.343 13.4196 126.423 13.6911Z" fill="#C8F9EA"/>
</svg>
